  0
SECTION
  2
HEADER
  9
$ACADVER
  1
AC1014
  9
$HANDSEED
  5
FFFF
  9
$MEASUREMENT
 70
     1
  0
ENDSEC
  0
SECTION
  2
TABLES
  0
TABLE
  2
VPORT
  5
8
330
0
100
AcDbSymbolTable
 70
     4
  0
VPORT
  5
2E
330
8
100
AcDbSymbolTableRecord
100
AcDbViewportTableRecord
  2
*ACTIVE
 70
     0
 10
0.0
 20
0.0
 11
1.0
 21
1.0
 12
210.0
 22
148.5
 13
0.0
 23
0.0
 14
10.0
 24
10.0
 15
10.0
 25
10.0
 16
0.0
 26
0.0
 36
1.0
 17
0.0
 27
0.0
 37
0.0
 40
341.0
 41
1.24
 42
50.0
 43
0.0
 44
0.0
 50
0.0
 51
0.0
 71
     0
 72
   100
 73
     1
 74
     3
 75
     0
 76
     0
 77
     0
 78
     0
  0
ENDTAB
  0
TABLE
  2
LTYPE
  5
5
330
0
100
AcDbSymbolTable
 70
     1
  0
LTYPE
  5
14
330
5
100
AcDbSymbolTableRecord
100
AcDbLinetypeTableRecord
  2
BYBLOCK
 70
     0
  3

 72
    65
 73
     0
 40
0.0
  0
LTYPE
  5
15
330
5
100
AcDbSymbolTableRecord
100
AcDbLinetypeTableRecord
  2
BYLAYER
 70
     0
  3

 72
    65
 73
     0
 40
0.0
  0
LTYPE
  5
16
330
5
100
AcDbSymbolTableRecord
100
AcDbLinetypeTableRecord
  2
CONTINUOUS
 70
     0
  3
Solid line
 72
    65
 73
     0
 40
0.0
  0
ENDTAB
  0
TABLE
  2
LAYER
  5
2
100
AcDbSymbolTable
 70
2
  0
LAYER
  5
50
100
AcDbSymbolTableRecord
100
AcDbLayerTableRecord
  2
0
 70
0
  6
CONTINUOUS
  0
LAYER
  5
51
100
AcDbSymbolTableRecord
100
AcDbLayerTableRecord
  2
Layer_1
 70
0
  6
CONTINUOUS
  0
ENDTAB
  0
TABLE
  2
STYLE
  5
3
330
0
100
AcDbSymbolTable
 70
     1
  0
STYLE
  5
11
330
3
100
AcDbSymbolTableRecord
100
AcDbTextStyleTableRecord
  2
STANDARD
 70
     0
 40
0.0
 41
1.0
 50
0.0
 71
     0
 42
2.5
  3
txt
  4

  0
ENDTAB
  0
TABLE
  2
VIEW
  5
6
330
0
100
AcDbSymbolTable
 70
     0
  0
ENDTAB
  0
TABLE
  2
UCS
  5
7
330
0
100
AcDbSymbolTable
 70
     0
  0
ENDTAB
  0
TABLE
  2
APPID
  5
9
330
0
100
AcDbSymbolTable
 70
     2
  0
APPID
  5
12
330
9
100
AcDbSymbolTableRecord
100
AcDbRegAppTableRecord
  2
ACAD
 70
     0
  0
ENDTAB
  0
TABLE
  2
DIMSTYLE
  5
A
330
0
100
AcDbSymbolTable
 70
     1
  0
DIMSTYLE
105
27
330
A
100
AcDbSymbolTableRecord
100
AcDbDimStyleTableRecord
  2
ISO-25
 70
     0
  3

  4

  5

  6

  7

 40
1.0
 41
2.5
 42
0.625
 43
3.75
 44
1.25
 45
0.0
 46
0.0
 47
0.0
 48
0.0
140
2.5
141
2.5
142
0.0
143
0.03937007874016
144
1.0
145
0.0
146
1.0
147
0.625
 71
     0
 72
     0
 73
     0
 74
     0
 75
     0
 76
     0
 77
     1
 78
     8
170
     0
171
     3
172
     1
173
     0
174
     0
175
     0
176
     0
177
     0
178
     0
270
     2
271
     2
272
     2
273
     2
274
     3
340
11
275
     0
280
     0
281
     0
282
     0
283
     0
284
     8
285
     0
286
     0
287
     3
288
     0
  0
ENDTAB
  0
TABLE
  2
BLOCK_RECORD
  5
1
330
0
100
AcDbSymbolTable
 70
     1
  0
BLOCK_RECORD
  5
1F
330
1
100
AcDbSymbolTableRecord
100
AcDbBlockTableRecord
  2
*MODEL_SPACE
  0
BLOCK_RECORD
  5
1B
330
1
100
AcDbSymbolTableRecord
100
AcDbBlockTableRecord
  2
*PAPER_SPACE
  0
ENDTAB
  0
ENDSEC
  0
SECTION
  2
BLOCKS
  0
BLOCK
  5
20
330
1F
100
AcDbEntity
  8
0
100
AcDbBlockBegin
  2
*MODEL_SPACE
 70
     0
 10
0.0
 20
0.0
 30
0.0
  3
*MODEL_SPACE
  1

  0
ENDBLK
  5
21
330
1F
100
AcDbEntity
  8
0
100
AcDbBlockEnd
  0
BLOCK
  5
1C
330
1B
100
AcDbEntity
 67
     1
  8
0
100
AcDbBlockBegin
  2
*PAPER_SPACE
  1

  0
ENDBLK
  5
1D
330
1B
100
AcDbEntity
 67
     1
  8
0
100
AcDbBlockEnd
  0
ENDSEC
  0
SECTION
  2
ENTITIES
  0
LWPOLYLINE
  5
100
100
AcDbEntity
  8
Layer_1
 62
1
100
AcDbPolyline
 90
158
 70
1
 10
277.131688
 20
312.868730
 30
0.0
 10
267.131721
 20
312.868730
 30
0.0
 10
267.131721
 20
314.868739
 30
0.0
 10
257.131754
 20
314.868739
 30
0.0
 10
257.131754
 20
312.868730
 30
0.0
 10
247.131765
 20
312.868730
 30
0.0
 10
247.131765
 20
314.868739
 30
0.0
 10
237.131792
 20
314.868739
 30
0.0
 10
237.131792
 20
312.868730
 30
0.0
 10
227.131814
 20
312.868730
 30
0.0
 10
227.131814
 20
314.868739
 30
0.0
 10
217.131839
 20
314.868739
 30
0.0
 10
217.131839
 20
312.868730
 30
0.0
 10
207.131866
 20
312.868730
 30
0.0
 10
207.131866
 20
314.868739
 30
0.0
 10
197.131888
 20
314.868739
 30
0.0
 10
197.131888
 20
312.868730
 30
0.0
 10
187.131916
 20
312.868730
 30
0.0
 10
187.131916
 20
314.868739
 30
0.0
 10
177.131948
 20
314.868739
 30
0.0
 10
177.131948
 20
312.868730
 30
0.0
 10
167.131973
 20
312.868730
 30
0.0
 10
167.131973
 20
314.868739
 30
0.0
 10
157.131997
 20
314.868739
 30
0.0
 10
157.131997
 20
312.868730
 30
0.0
 10
147.132022
 20
312.868730
 30
0.0
 10
147.132022
 20
314.868739
 30
0.0
 10
137.132047
 20
314.868739
 30
0.0
 10
137.132047
 20
312.868730
 30
0.0
 10
127.132074
 20
312.868730
 30
0.0
 10
127.132074
 20
314.868739
 30
0.0
 10
117.132096
 20
314.868739
 30
0.0
 10
117.132096
 20
312.868730
 30
0.0
 10
107.132123
 20
312.868730
 30
0.0
 10
107.132123
 20
314.868739
 30
0.0
 10
97.132148
 20
314.868739
 30
0.0
 10
97.132148
 20
312.868730
 30
0.0
 10
87.132175
 20
312.868730
 30
0.0
 10
87.132175
 20
314.868739
 30
0.0
 10
77.132197
 20
314.868739
 30
0.0
 10
77.132197
 20
312.868730
 30
0.0
 10
67.132225
 20
312.868730
 30
0.0
 10
67.132225
 20
314.868739
 30
0.0
 10
57.132249
 20
314.868739
 30
0.0
 10
57.132249
 20
312.868730
 30
0.0
 10
47.132274
 20
312.868730
 30
0.0
 10
47.132274
 20
314.868739
 30
0.0
 10
37.132299
 20
314.868739
 30
0.0
 10
37.132299
 20
312.868730
 30
0.0
 10
27.132323
 20
312.868730
 30
0.0
 10
27.132323
 20
314.868739
 30
0.0
 10
17.132351
 20
314.868739
 30
0.0
 10
17.132351
 20
312.868730
 30
0.0
 10
7.132376
 20
312.868730
 30
0.0
 10
7.132376
 20
297.868779
 30
0.0
 10
5.132380
 20
297.868779
 30
0.0
 10
5.132380
 20
287.868811
 30
0.0
 10
7.132376
 20
287.868811
 30
0.0
 10
7.132376
 20
277.868844
 30
0.0
 10
5.132380
 20
277.868844
 30
0.0
 10
5.132380
 20
267.868877
 30
0.0
 10
7.132376
 20
267.868877
 30
0.0
 10
7.132376
 20
257.868883
 30
0.0
 10
5.132380
 20
257.868883
 30
0.0
 10
5.132380
 20
247.868915
 30
0.0
 10
7.132376
 20
247.868915
 30
0.0
 10
7.132376
 20
237.868948
 30
0.0
 10
5.132380
 20
237.868948
 30
0.0
 10
5.132380
 20
227.868981
 30
0.0
 10
7.132376
 20
227.868981
 30
0.0
 10
7.132376
 20
217.868987
 30
0.0
 10
5.132380
 20
217.868987
 30
0.0
 10
5.132380
 20
207.868993
 30
0.0
 10
7.132376
 20
207.868993
 30
0.0
 10
7.132376
 20
197.869052
 30
0.0
 10
5.132380
 20
197.869052
 30
0.0
 10
5.132380
 20
187.869058
 30
0.0
 10
7.132376
 20
187.869058
 30
0.0
 10
7.132376
 20
177.869091
 30
0.0
 10
7.132376
 20
172.869107
 30
0.0
 10
17.132351
 20
172.869107
 30
0.0
 10
17.132351
 20
170.869098
 30
0.0
 10
27.132323
 20
170.869098
 30
0.0
 10
27.132323
 20
172.869107
 30
0.0
 10
37.132299
 20
172.869107
 30
0.0
 10
37.132299
 20
170.869098
 30
0.0
 10
47.132274
 20
170.869098
 30
0.0
 10
47.132274
 20
172.869107
 30
0.0
 10
57.132249
 20
172.869107
 30
0.0
 10
57.132249
 20
170.869098
 30
0.0
 10
67.132225
 20
170.869098
 30
0.0
 10
67.132225
 20
172.869107
 30
0.0
 10
77.132197
 20
172.869107
 30
0.0
 10
77.132197
 20
170.869098
 30
0.0
 10
87.132175
 20
170.869098
 30
0.0
 10
87.132175
 20
172.869107
 30
0.0
 10
97.132148
 20
172.869107
 30
0.0
 10
97.132148
 20
170.869098
 30
0.0
 10
107.132123
 20
170.869098
 30
0.0
 10
107.132123
 20
172.869107
 30
0.0
 10
117.132096
 20
172.869107
 30
0.0
 10
117.132096
 20
170.869098
 30
0.0
 10
127.132074
 20
170.869098
 30
0.0
 10
127.132074
 20
172.869107
 30
0.0
 10
137.132047
 20
172.869107
 30
0.0
 10
137.132047
 20
170.869098
 30
0.0
 10
147.132022
 20
170.869098
 30
0.0
 10
147.132022
 20
172.869107
 30
0.0
 10
157.131997
 20
172.869107
 30
0.0
 10
157.131997
 20
170.869098
 30
0.0
 10
167.131973
 20
170.869098
 30
0.0
 10
167.131973
 20
172.869107
 30
0.0
 10
177.131948
 20
172.869107
 30
0.0
 10
177.131948
 20
170.869098
 30
0.0
 10
187.131916
 20
170.869098
 30
0.0
 10
187.131916
 20
172.869107
 30
0.0
 10
197.131888
 20
172.869107
 30
0.0
 10
197.131888
 20
170.869098
 30
0.0
 10
207.131866
 20
170.869098
 30
0.0
 10
207.131866
 20
172.869107
 30
0.0
 10
217.131839
 20
172.869107
 30
0.0
 10
217.131839
 20
170.869098
 30
0.0
 10
227.131814
 20
170.869098
 30
0.0
 10
227.131814
 20
172.869107
 30
0.0
 10
237.131792
 20
172.869107
 30
0.0
 10
237.131792
 20
170.869098
 30
0.0
 10
247.131765
 20
170.869098
 30
0.0
 10
247.131765
 20
172.869107
 30
0.0
 10
257.131754
 20
172.869107
 30
0.0
 10
257.131754
 20
170.869098
 30
0.0
 10
267.131721
 20
170.869098
 30
0.0
 10
267.131721
 20
172.869107
 30
0.0
 10
277.131688
 20
172.869107
 30
0.0
 10
277.131688
 20
187.869058
 30
0.0
 10
279.131698
 20
187.869058
 30
0.0
 10
279.131698
 20
197.869052
 30
0.0
 10
277.131688
 20
197.869052
 30
0.0
 10
277.131688
 20
207.868993
 30
0.0
 10
279.131698
 20
207.868993
 30
0.0
 10
279.131698
 20
217.868987
 30
0.0
 10
277.131688
 20
217.868987
 30
0.0
 10
277.131688
 20
227.868981
 30
0.0
 10
279.131698
 20
227.868981
 30
0.0
 10
279.131698
 20
237.868948
 30
0.0
 10
277.131688
 20
237.868948
 30
0.0
 10
277.131688
 20
247.868915
 30
0.0
 10
279.131698
 20
247.868915
 30
0.0
 10
279.131698
 20
257.868883
 30
0.0
 10
277.131688
 20
257.868883
 30
0.0
 10
277.131688
 20
267.868877
 30
0.0
 10
279.131698
 20
267.868877
 30
0.0
 10
279.131698
 20
277.868844
 30
0.0
 10
277.131688
 20
277.868844
 30
0.0
 10
277.131688
 20
287.868811
 30
0.0
 10
279.131698
 20
287.868811
 30
0.0
 10
279.131698
 20
297.868779
 30
0.0
 10
277.131688
 20
297.868779
 30
0.0
 10
277.131688
 20
307.868773
 30
0.0
  0
LWPOLYLINE
  5
101
100
AcDbEntity
  8
Layer_1
 62
7
100
AcDbPolyline
 90
4
 70
1
 10
259.056754
 20
287.793881
 30
0.0
 10
259.056754
 20
272.793877
 30
0.0
 10
195.056896
 20
272.793877
 30
0.0
 10
195.056896
 20
287.793881
 30
0.0
  0
LWPOLYLINE
  5
102
100
AcDbEntity
  8
Layer_1
 62
7
100
AcDbPolyline
 90
4
 70
1
 10
259.056754
 20
212.793967
 30
0.0
 10
259.056754
 20
197.794016
 30
0.0
 10
195.056896
 20
197.794016
 30
0.0
 10
195.056896
 20
212.793967
 30
0.0
  0
LWPOLYLINE
  5
103
100
AcDbEntity
  8
Layer_1
 62
7
100
AcDbPolyline
 90
4
 70
1
 10
237.056786
 20
270.793895
 30
0.0
 10
237.056786
 20
268.793912
 30
0.0
 10
230.056806
 20
268.793912
 30
0.0
 10
230.056806
 20
270.793895
 30
0.0
  0
LWPOLYLINE
  5
104
100
AcDbEntity
  8
Layer_1
 62
7
100
AcDbPolyline
 90
4
 70
1
 10
224.056820
 20
216.793959
 30
0.0
 10
224.056820
 20
214.793977
 30
0.0
 10
217.056838
 20
214.793977
 30
0.0
 10
217.056838
 20
216.793959
 30
0.0
  0
LWPOLYLINE
  5
105
100
AcDbEntity
  8
Layer_1
 62
7
100
AcDbPolyline
 90
4
 70
1
 10
237.056786
 20
216.793959
 30
0.0
 10
237.056786
 20
214.793977
 30
0.0
 10
230.056806
 20
214.793977
 30
0.0
 10
230.056806
 20
216.793959
 30
0.0
  0
LWPOLYLINE
  5
106
100
AcDbEntity
  8
Layer_1
 62
7
100
AcDbPolyline
 90
4
 70
1
 10
224.056820
 20
270.793895
 30
0.0
 10
224.056820
 20
268.793912
 30
0.0
 10
217.056838
 20
268.793912
 30
0.0
 10
217.056838
 20
270.793895
 30
0.0
  0
LWPOLYLINE
  5
107
100
AcDbEntity
  8
Layer_1
 62
7
100
AcDbPolyline
 90
4
 70
1
 10
89.057170
 20
287.793881
 30
0.0
 10
89.057170
 20
272.793877
 30
0.0
 10
25.057329
 20
272.793877
 30
0.0
 10
25.057329
 20
287.793881
 30
0.0
  0
LWPOLYLINE
  5
108
100
AcDbEntity
  8
Layer_1
 62
7
100
AcDbPolyline
 90
4
 70
1
 10
89.057170
 20
212.793967
 30
0.0
 10
89.057170
 20
197.794016
 30
0.0
 10
25.057329
 20
197.794016
 30
0.0
 10
25.057329
 20
212.793967
 30
0.0
  0
LWPOLYLINE
  5
109
100
AcDbEntity
  8
Layer_1
 62
7
100
AcDbPolyline
 90
4
 70
1
 10
67.057208
 20
270.793895
 30
0.0
 10
67.057208
 20
268.793912
 30
0.0
 10
60.057222
 20
268.793912
 30
0.0
 10
60.057222
 20
270.793895
 30
0.0
  0
LWPOLYLINE
  5
10a
100
AcDbEntity
  8
Layer_1
 62
7
100
AcDbPolyline
 90
4
 70
1
 10
54.057239
 20
216.793959
 30
0.0
 10
54.057239
 20
214.793977
 30
0.0
 10
47.057254
 20
214.793977
 30
0.0
 10
47.057254
 20
216.793959
 30
0.0
  0
LWPOLYLINE
  5
10b
100
AcDbEntity
  8
Layer_1
 62
7
100
AcDbPolyline
 90
4
 70
1
 10
67.057208
 20
216.793959
 30
0.0
 10
67.057208
 20
214.793977
 30
0.0
 10
60.057222
 20
214.793977
 30
0.0
 10
60.057222
 20
216.793959
 30
0.0
  0
SPLINE
  5
10c
100
AcDbEntity
  8
Layer_1
 62
7
100
AcDbSpline
 70
8
 71
3
 72
8
 73
4
 74
0
 40
0
 40
0
 40
0
 40
0
 40
1
 40
1
 40
1
 40
1
 10
120.557091
 20
266.543924
 30
0.0
 10
120.225569
 20
266.543924
 30
0.0
 10
119.907627
 20
266.675607
 30
0.0
 10
119.673209
 20
266.910028
 30
0.0
  0
SPLINE
  5
10d
100
AcDbEntity
  8
Layer_1
 62
7
100
AcDbSpline
 70
8
 71
3
 72
8
 73
4
 74
0
 40
0
 40
0
 40
0
 40
0
 40
1
 40
1
 40
1
 40
1
 10
119.673209
 20
266.910028
 30
0.0
 10
119.438792
 20
267.144448
 30
0.0
 10
119.307095
 20
267.462398
 30
0.0
 10
119.307095
 20
267.793920
 30
0.0
  0
SPLINE
  5
10e
100
AcDbEntity
  8
Layer_1
 62
7
100
AcDbSpline
 70
8
 71
3
 72
8
 73
4
 74
0
 40
0
 40
0
 40
0
 40
0
 40
1
 40
1
 40
1
 40
1
 10
119.307095
 20
267.793920
 30
0.0
 10
119.307095
 20
268.125443
 30
0.0
 10
119.438792
 20
268.443392
 30
0.0
 10
119.673209
 20
268.677813
 30
0.0
  0
SPLINE
  5
10f
100
AcDbEntity
  8
Layer_1
 62
7
100
AcDbSpline
 70
8
 71
3
 72
8
 73
4
 74
0
 40
0
 40
0
 40
0
 40
0
 40
1
 40
1
 40
1
 40
1
 10
119.673209
 20
268.677813
 30
0.0
 10
119.907627
 20
268.912233
 30
0.0
 10
120.225569
 20
269.043916
 30
0.0
 10
120.557091
 20
269.043916
 30
0.0
  0
SPLINE
  5
110
100
AcDbEntity
  8
Layer_1
 62
7
100
AcDbSpline
 70
8
 71
3
 72
8
 73
4
 74
0
 40
0
 40
0
 40
0
 40
0
 40
1
 40
1
 40
1
 40
1
 10
120.557091
 20
269.043916
 30
0.0
 10
121.247444
 20
269.043916
 30
0.0
 10
121.807087
 20
268.484270
 30
0.0
 10
121.807087
 20
267.793920
 30
0.0
  0
SPLINE
  5
111
100
AcDbEntity
  8
Layer_1
 62
7
100
AcDbSpline
 70
8
 71
3
 72
8
 73
4
 74
0
 40
0
 40
0
 40
0
 40
0
 40
1
 40
1
 40
1
 40
1
 10
121.807087
 20
267.793920
 30
0.0
 10
121.807087
 20
267.462398
 30
0.0
 10
121.675391
 20
267.144448
 30
0.0
 10
121.440971
 20
266.910028
 30
0.0
  0
SPLINE
  5
112
100
AcDbEntity
  8
Layer_1
 62
7
100
AcDbSpline
 70
8
 71
3
 72
8
 73
4
 74
0
 40
0
 40
0
 40
0
 40
0
 40
1
 40
1
 40
1
 40
1
 10
121.440971
 20
266.910028
 30
0.0
 10
121.206553
 20
266.675607
 30
0.0
 10
120.888611
 20
266.543924
 30
0.0
 10
120.557091
 20
266.543924
 30
0.0
  0
LWPOLYLINE
  5
113
100
AcDbEntity
  8
Layer_1
 62
7
100
AcDbPolyline
 90
4
 70
1
 10
54.057239
 20
270.793895
 30
0.0
 10
54.057239
 20
268.793912
 30
0.0
 10
47.057254
 20
268.793912
 30
0.0
 10
47.057254
 20
270.793895
 30
0.0
  0
SPLINE
  5
114
100
AcDbEntity
  8
Layer_1
 62
7
100
AcDbSpline
 70
8
 71
3
 72
8
 73
4
 74
0
 40
0
 40
0
 40
0
 40
0
 40
1
 40
1
 40
1
 40
1
 10
120.557091
 20
216.543981
 30
0.0
 10
120.225569
 20
216.543981
 30
0.0
 10
119.907627
 20
216.675664
 30
0.0
 10
119.673209
 20
216.910085
 30
0.0
  0
SPLINE
  5
115
100
AcDbEntity
  8
Layer_1
 62
7
100
AcDbSpline
 70
8
 71
3
 72
8
 73
4
 74
0
 40
0
 40
0
 40
0
 40
0
 40
1
 40
1
 40
1
 40
1
 10
119.673209
 20
216.910085
 30
0.0
 10
119.438792
 20
217.144506
 30
0.0
 10
119.307095
 20
217.462455
 30
0.0
 10
119.307095
 20
217.793977
 30
0.0
  0
SPLINE
  5
116
100
AcDbEntity
  8
Layer_1
 62
7
100
AcDbSpline
 70
8
 71
3
 72
8
 73
4
 74
0
 40
0
 40
0
 40
0
 40
0
 40
1
 40
1
 40
1
 40
1
 10
119.307095
 20
217.793977
 30
0.0
 10
119.307095
 20
218.125500
 30
0.0
 10
119.438792
 20
218.443423
 30
0.0
 10
119.673209
 20
218.677843
 30
0.0
  0
SPLINE
  5
117
100
AcDbEntity
  8
Layer_1
 62
7
100
AcDbSpline
 70
8
 71
3
 72
8
 73
4
 74
0
 40
0
 40
0
 40
0
 40
0
 40
1
 40
1
 40
1
 40
1
 10
119.673209
 20
218.677843
 30
0.0
 10
119.907627
 20
218.912264
 30
0.0
 10
120.225569
 20
219.043973
 30
0.0
 10
120.557091
 20
219.043973
 30
0.0
  0
SPLINE
  5
118
100
AcDbEntity
  8
Layer_1
 62
7
100
AcDbSpline
 70
8
 71
3
 72
8
 73
4
 74
0
 40
0
 40
0
 40
0
 40
0
 40
1
 40
1
 40
1
 40
1
 10
120.557091
 20
219.043973
 30
0.0
 10
120.888611
 20
219.043973
 30
0.0
 10
121.206553
 20
218.912264
 30
0.0
 10
121.440971
 20
218.677843
 30
0.0
  0
SPLINE
  5
119
100
AcDbEntity
  8
Layer_1
 62
7
100
AcDbSpline
 70
8
 71
3
 72
8
 73
4
 74
0
 40
0
 40
0
 40
0
 40
0
 40
1
 40
1
 40
1
 40
1
 10
121.440971
 20
218.677843
 30
0.0
 10
121.675391
 20
218.443423
 30
0.0
 10
121.807087
 20
218.125500
 30
0.0
 10
121.807087
 20
217.793977
 30
0.0
  0
SPLINE
  5
11a
100
AcDbEntity
  8
Layer_1
 62
7
100
AcDbSpline
 70
8
 71
3
 72
8
 73
4
 74
0
 40
0
 40
0
 40
0
 40
0
 40
1
 40
1
 40
1
 40
1
 10
121.807087
 20
217.793977
 30
0.0
 10
121.807087
 20
217.462455
 30
0.0
 10
121.675391
 20
217.144506
 30
0.0
 10
121.440971
 20
216.910085
 30
0.0
  0
SPLINE
  5
11b
100
AcDbEntity
  8
Layer_1
 62
7
100
AcDbSpline
 70
8
 71
3
 72
8
 73
4
 74
0
 40
0
 40
0
 40
0
 40
0
 40
1
 40
1
 40
1
 40
1
 10
121.440971
 20
216.910085
 30
0.0
 10
121.206553
 20
216.675664
 30
0.0
 10
120.888611
 20
216.543981
 30
0.0
 10
120.557091
 20
216.543981
 30
0.0
  0
LWPOLYLINE
  5
11c
100
AcDbEntity
  8
Layer_1
 62
7
100
AcDbPolyline
 90
4
 70
1
 10
174.056957
 20
302.793780
 30
0.0
 10
174.056957
 20
272.793851
 30
0.0
 10
110.057118
 20
272.793851
 30
0.0
 10
110.057118
 20
302.793780
 30
0.0
  0
SPLINE
  5
11d
100
AcDbEntity
  8
Layer_1
 62
7
100
AcDbSpline
 70
8
 71
3
 72
8
 73
4
 74
0
 40
0
 40
0
 40
0
 40
0
 40
1
 40
1
 40
1
 40
1
 10
279.131709
 20
16.133260
 30
0.0
 10
11.912690
 20
16.133260
 30
0.0
 10
5.562890
 20
16.133260
 30
0.0
 10
5.562890
 20
16.133260
 30
0.0
  0
SPLINE
  5
11e
100
AcDbEntity
  8
Layer_1
 62
7
100
AcDbSpline
 70
8
 71
3
 72
8
 73
4
 74
0
 40
0
 40
0
 40
0
 40
0
 40
1
 40
1
 40
1
 40
1
 10
269.722499
 20
25.010200
 30
0.0
 10
269.722499
 20
25.142330
 30
0.0
 10
269.775199
 20
25.269050
 30
0.0
 10
269.868959
 20
25.362480
 30
0.0
  0
SPLINE
  5
11f
100
AcDbEntity
  8
Layer_1
 62
7
100
AcDbSpline
 70
8
 71
3
 72
8
 73
4
 74
0
 40
0
 40
0
 40
0
 40
0
 40
1
 40
1
 40
1
 40
1
 10
269.868959
 20
25.362480
 30
0.0
 10
269.962759
 20
25.455880
 30
0.0
 10
270.089899
 20
25.508400
 30
0.0
 10
270.222509
 20
25.508390
 30
0.0
  0
SPLINE
  5
120
100
AcDbEntity
  8
Layer_1
 62
7
100
AcDbSpline
 70
8
 71
3
 72
8
 73
4
 74
0
 40
0
 40
0
 40
0
 40
0
 40
1
 40
1
 40
1
 40
1
 10
270.222509
 20
25.508390
 30
0.0
 10
270.498659
 20
25.508390
 30
0.0
 10
270.722519
 20
25.285350
 30
0.0
 10
270.722519
 20
25.010200
 30
0.0
  0
SPLINE
  5
121
100
AcDbEntity
  8
Layer_1
 62
7
100
AcDbSpline
 70
8
 71
3
 72
8
 73
4
 74
0
 40
0
 40
0
 40
0
 40
0
 40
1
 40
1
 40
1
 40
1
 10
270.722519
 20
25.010200
 30
0.0
 10
270.722519
 20
24.735060
 30
0.0
 10
270.498659
 20
24.512020
 30
0.0
 10
270.222509
 20
24.512020
 30
0.0
  0
SPLINE
  5
122
100
AcDbEntity
  8
Layer_1
 62
7
100
AcDbSpline
 70
8
 71
3
 72
8
 73
4
 74
0
 40
0
 40
0
 40
0
 40
0
 40
1
 40
1
 40
1
 40
1
 10
270.222509
 20
24.512020
 30
0.0
 10
270.089899
 20
24.512020
 30
0.0
 10
269.962729
 20
24.564520
 30
0.0
 10
269.868959
 20
24.657930
 30
0.0
  0
SPLINE
  5
123
100
AcDbEntity
  8
Layer_1
 62
7
100
AcDbSpline
 70
8
 71
3
 72
8
 73
4
 74
0
 40
0
 40
0
 40
0
 40
0
 40
1
 40
1
 40
1
 40
1
 10
269.868959
 20
24.657930
 30
0.0
 10
269.775159
 20
24.751330
 30
0.0
 10
269.722499
 20
24.878070
 30
0.0
 10
269.722499
 20
25.010200
 30
0.0
  0
SPLINE
  5
124
100
AcDbEntity
  8
Layer_1
 62
7
100
AcDbSpline
 70
8
 71
3
 72
8
 73
4
 74
0
 40
0
 40
0
 40
0
 40
0
 40
1
 40
1
 40
1
 40
1
 10
13.722090
 20
25.010200
 30
0.0
 10
13.722090
 20
25.285350
 30
0.0
 10
13.945990
 20
25.508390
 30
0.0
 10
14.222110
 20
25.508390
 30
0.0
  0
SPLINE
  5
125
100
AcDbEntity
  8
Layer_1
 62
7
100
AcDbSpline
 70
8
 71
3
 72
8
 73
4
 74
0
 40
0
 40
0
 40
0
 40
0
 40
1
 40
1
 40
1
 40
1
 10
14.222110
 20
25.508390
 30
0.0
 10
14.354710
 20
25.508400
 30
0.0
 10
14.481870
 20
25.455890
 30
0.0
 10
14.575670
 20
25.362480
 30
0.0
  0
SPLINE
  5
126
100
AcDbEntity
  8
Layer_1
 62
7
100
AcDbSpline
 70
8
 71
3
 72
8
 73
4
 74
0
 40
0
 40
0
 40
0
 40
0
 40
1
 40
1
 40
1
 40
1
 10
14.575670
 20
25.362480
 30
0.0
 10
14.669470
 20
25.269080
 30
0.0
 10
14.722110
 20
25.142330
 30
0.0
 10
14.722110
 20
25.010200
 30
0.0
  0
SPLINE
  5
127
100
AcDbEntity
  8
Layer_1
 62
7
100
AcDbSpline
 70
8
 71
3
 72
8
 73
4
 74
0
 40
0
 40
0
 40
0
 40
0
 40
1
 40
1
 40
1
 40
1
 10
14.722110
 20
25.010200
 30
0.0
 10
14.722110
 20
24.878070
 30
0.0
 10
14.669410
 20
24.751360
 30
0.0
 10
14.575670
 20
24.657930
 30
0.0
  0
SPLINE
  5
128
100
AcDbEntity
  8
Layer_1
 62
7
100
AcDbSpline
 70
8
 71
3
 72
8
 73
4
 74
0
 40
0
 40
0
 40
0
 40
0
 40
1
 40
1
 40
1
 40
1
 10
14.575670
 20
24.657930
 30
0.0
 10
14.481870
 20
24.564530
 30
0.0
 10
14.354710
 20
24.512020
 30
0.0
 10
14.222110
 20
24.512020
 30
0.0
  0
SPLINE
  5
129
100
AcDbEntity
  8
Layer_1
 62
7
100
AcDbSpline
 70
8
 71
3
 72
8
 73
4
 74
0
 40
0
 40
0
 40
0
 40
0
 40
1
 40
1
 40
1
 40
1
 10
14.222110
 20
24.512020
 30
0.0
 10
13.945990
 20
24.512020
 30
0.0
 10
13.722090
 20
24.735060
 30
0.0
 10
13.722090
 20
25.010200
 30
0.0
  0
SPLINE
  5
12a
100
AcDbEntity
  8
Layer_1
 62
7
100
AcDbSpline
 70
8
 71
3
 72
8
 73
4
 74
0
 40
0
 40
0
 40
0
 40
0
 40
1
 40
1
 40
1
 40
1
 10
269.722499
 20
150.554140
 30
0.0
 10
269.722499
 20
150.686270
 30
0.0
 10
269.775199
 20
150.812990
 30
0.0
 10
269.868949
 20
150.906420
 30
0.0
  0
SPLINE
  5
12b
100
AcDbEntity
  8
Layer_1
 62
7
100
AcDbSpline
 70
8
 71
3
 72
8
 73
4
 74
0
 40
0
 40
0
 40
0
 40
0
 40
1
 40
1
 40
1
 40
1
 10
269.868949
 20
150.906420
 30
0.0
 10
269.962749
 20
150.999820
 30
0.0
 10
270.089899
 20
151.052340
 30
0.0
 10
270.222509
 20
151.052340
 30
0.0
  0
SPLINE
  5
12c
100
AcDbEntity
  8
Layer_1
 62
7
100
AcDbSpline
 70
8
 71
3
 72
8
 73
4
 74
0
 40
0
 40
0
 40
0
 40
0
 40
1
 40
1
 40
1
 40
1
 10
270.222509
 20
151.052340
 30
0.0
 10
270.355119
 20
151.052340
 30
0.0
 10
270.482299
 20
150.999840
 30
0.0
 10
270.576069
 20
150.906420
 30
0.0
  0
SPLINE
  5
12d
100
AcDbEntity
  8
Layer_1
 62
7
100
AcDbSpline
 70
8
 71
3
 72
8
 73
4
 74
0
 40
0
 40
0
 40
0
 40
0
 40
1
 40
1
 40
1
 40
1
 10
270.576069
 20
150.906420
 30
0.0
 10
270.669869
 20
150.813020
 30
0.0
 10
270.722519
 20
150.686270
 30
0.0
 10
270.722519
 20
150.554140
 30
0.0
  0
SPLINE
  5
12e
100
AcDbEntity
  8
Layer_1
 62
7
100
AcDbSpline
 70
8
 71
3
 72
8
 73
4
 74
0
 40
0
 40
0
 40
0
 40
0
 40
1
 40
1
 40
1
 40
1
 10
270.722519
 20
150.554140
 30
0.0
 10
270.722519
 20
150.279000
 30
0.0
 10
270.498659
 20
150.055950
 30
0.0
 10
270.222509
 20
150.055950
 30
0.0
  0
SPLINE
  5
12f
100
AcDbEntity
  8
Layer_1
 62
7
100
AcDbSpline
 70
8
 71
3
 72
8
 73
4
 74
0
 40
0
 40
0
 40
0
 40
0
 40
1
 40
1
 40
1
 40
1
 10
270.222509
 20
150.055950
 30
0.0
 10
270.089899
 20
150.055950
 30
0.0
 10
269.962729
 20
150.108450
 30
0.0
 10
269.868959
 20
150.201860
 30
0.0
  0
SPLINE
  5
130
100
AcDbEntity
  8
Layer_1
 62
7
100
AcDbSpline
 70
8
 71
3
 72
8
 73
4
 74
0
 40
0
 40
0
 40
0
 40
0
 40
1
 40
1
 40
1
 40
1
 10
269.868959
 20
150.201860
 30
0.0
 10
269.775159
 20
150.295260
 30
0.0
 10
269.722499
 20
150.422010
 30
0.0
 10
269.722499
 20
150.554140
 30
0.0
  0
SPLINE
  5
131
100
AcDbEntity
  8
Layer_1
 62
7
100
AcDbSpline
 70
8
 71
3
 72
8
 73
4
 74
0
 40
0
 40
0
 40
0
 40
0
 40
1
 40
1
 40
1
 40
1
 10
13.722090
 20
150.554140
 30
0.0
 10
13.722090
 20
150.686270
 30
0.0
 10
13.775090
 20
150.812990
 30
0.0
 10
13.868590
 20
150.906420
 30
0.0
  0
SPLINE
  5
132
100
AcDbEntity
  8
Layer_1
 62
7
100
AcDbSpline
 70
8
 71
3
 72
8
 73
4
 74
0
 40
0
 40
0
 40
0
 40
0
 40
1
 40
1
 40
1
 40
1
 10
13.868590
 20
150.906420
 30
0.0
 10
13.962590
 20
150.999820
 30
0.0
 10
14.089490
 20
151.052340
 30
0.0
 10
14.222110
 20
151.052340
 30
0.0
  0
SPLINE
  5
133
100
AcDbEntity
  8
Layer_1
 62
7
100
AcDbSpline
 70
8
 71
3
 72
8
 73
4
 74
0
 40
0
 40
0
 40
0
 40
0
 40
1
 40
1
 40
1
 40
1
 10
14.222110
 20
151.052340
 30
0.0
 10
14.354710
 20
151.052340
 30
0.0
 10
14.481900
 20
150.999840
 30
0.0
 10
14.575670
 20
150.906420
 30
0.0
  0
SPLINE
  5
134
100
AcDbEntity
  8
Layer_1
 62
7
100
AcDbSpline
 70
8
 71
3
 72
8
 73
4
 74
0
 40
0
 40
0
 40
0
 40
0
 40
1
 40
1
 40
1
 40
1
 10
14.575670
 20
150.906420
 30
0.0
 10
14.669470
 20
150.813020
 30
0.0
 10
14.722110
 20
150.686270
 30
0.0
 10
14.722110
 20
150.554140
 30
0.0
  0
SPLINE
  5
135
100
AcDbEntity
  8
Layer_1
 62
7
100
AcDbSpline
 70
8
 71
3
 72
8
 73
4
 74
0
 40
0
 40
0
 40
0
 40
0
 40
1
 40
1
 40
1
 40
1
 10
14.722110
 20
150.554140
 30
0.0
 10
14.722110
 20
150.422010
 30
0.0
 10
14.669410
 20
150.295290
 30
0.0
 10
14.575670
 20
150.201860
 30
0.0
  0
SPLINE
  5
136
100
AcDbEntity
  8
Layer_1
 62
7
100
AcDbSpline
 70
8
 71
3
 72
8
 73
4
 74
0
 40
0
 40
0
 40
0
 40
0
 40
1
 40
1
 40
1
 40
1
 10
14.575670
 20
150.201860
 30
0.0
 10
14.481870
 20
150.108460
 30
0.0
 10
14.354710
 20
150.055950
 30
0.0
 10
14.222110
 20
150.055950
 30
0.0
  0
SPLINE
  5
137
100
AcDbEntity
  8
Layer_1
 62
7
100
AcDbSpline
 70
8
 71
3
 72
8
 73
4
 74
0
 40
0
 40
0
 40
0
 40
0
 40
1
 40
1
 40
1
 40
1
 10
14.222110
 20
150.055950
 30
0.0
 10
13.945990
 20
150.055950
 30
0.0
 10
13.722090
 20
150.279000
 30
0.0
 10
13.722090
 20
150.554140
 30
0.0
  0
SPLINE
  5
138
100
AcDbEntity
  8
Layer_1
 62
7
100
AcDbSpline
 70
8
 71
3
 72
8
 73
4
 74
0
 40
0
 40
0
 40
0
 40
0
 40
1
 40
1
 40
1
 40
1
 10
145.874880
 20
159.867720
 30
0.0
 10
145.874880
 20
157.666590
 30
0.0
 10
144.084000
 20
155.882210
 30
0.0
 10
141.874860
 20
155.882210
 30
0.0
  0
SPLINE
  5
139
100
AcDbEntity
  8
Layer_1
 62
7
100
AcDbSpline
 70
8
 71
3
 72
8
 73
4
 74
0
 40
0
 40
0
 40
0
 40
0
 40
1
 40
1
 40
1
 40
1
 10
141.874860
 20
155.882210
 30
0.0
 10
139.665720
 20
155.882210
 30
0.0
 10
137.874860
 20
157.666590
 30
0.0
 10
137.874860
 20
159.867720
 30
0.0
  0
SPLINE
  5
13a
100
AcDbEntity
  8
Layer_1
 62
7
100
AcDbSpline
 70
8
 71
3
 72
8
 73
4
 74
0
 40
0
 40
0
 40
0
 40
0
 40
1
 40
1
 40
1
 40
1
 10
174.374820
 20
73.390200
 30
0.0
 10
174.374820
 20
75.379320
 30
0.0
 10
175.165000
 20
77.286980
 30
0.0
 10
176.571520
 20
78.693500
 30
0.0
  0
SPLINE
  5
13b
100
AcDbEntity
  8
Layer_1
 62
7
100
AcDbSpline
 70
8
 71
3
 72
8
 73
4
 74
0
 40
0
 40
0
 40
0
 40
0
 40
1
 40
1
 40
1
 40
1
 10
176.571520
 20
78.693500
 30
0.0
 10
177.978050
 20
80.100020
 30
0.0
 10
179.885690
 20
80.890200
 30
0.0
 10
181.874830
 20
80.890200
 30
0.0
  0
SPLINE
  5
13c
100
AcDbEntity
  8
Layer_1
 62
7
100
AcDbSpline
 70
8
 71
3
 72
8
 73
4
 74
0
 40
0
 40
0
 40
0
 40
0
 40
1
 40
1
 40
1
 40
1
 10
181.874830
 20
80.890200
 30
0.0
 10
183.863940
 20
80.890200
 30
0.0
 10
185.771589
 20
80.100020
 30
0.0
 10
187.178109
 20
78.693500
 30
0.0
  0
SPLINE
  5
13d
100
AcDbEntity
  8
Layer_1
 62
7
100
AcDbSpline
 70
8
 71
3
 72
8
 73
4
 74
0
 40
0
 40
0
 40
0
 40
0
 40
1
 40
1
 40
1
 40
1
 10
187.178109
 20
78.693500
 30
0.0
 10
188.584639
 20
77.286980
 30
0.0
 10
189.374809
 20
75.379320
 30
0.0
 10
189.374809
 20
73.390200
 30
0.0
  0
SPLINE
  5
13e
100
AcDbEntity
  8
Layer_1
 62
7
100
AcDbSpline
 70
8
 71
3
 72
8
 73
4
 74
0
 40
0
 40
0
 40
0
 40
0
 40
1
 40
1
 40
1
 40
1
 10
189.374809
 20
73.390200
 30
0.0
 10
189.374809
 20
71.401080
 30
0.0
 10
188.584639
 20
69.493430
 30
0.0
 10
187.178109
 20
68.086910
 30
0.0
  0
SPLINE
  5
13f
100
AcDbEntity
  8
Layer_1
 62
7
100
AcDbSpline
 70
8
 71
3
 72
8
 73
4
 74
0
 40
0
 40
0
 40
0
 40
0
 40
1
 40
1
 40
1
 40
1
 10
187.178109
 20
68.086910
 30
0.0
 10
185.771589
 20
66.680390
 30
0.0
 10
183.863940
 20
65.890210
 30
0.0
 10
181.874830
 20
65.890210
 30
0.0
  0
SPLINE
  5
140
100
AcDbEntity
  8
Layer_1
 62
7
100
AcDbSpline
 70
8
 71
3
 72
8
 73
4
 74
0
 40
0
 40
0
 40
0
 40
0
 40
1
 40
1
 40
1
 40
1
 10
181.874830
 20
65.890210
 30
0.0
 10
179.885690
 20
65.890210
 30
0.0
 10
177.978050
 20
66.680390
 30
0.0
 10
176.571520
 20
68.086910
 30
0.0
  0
SPLINE
  5
141
100
AcDbEntity
  8
Layer_1
 62
7
100
AcDbSpline
 70
8
 71
3
 72
8
 73
4
 74
0
 40
0
 40
0
 40
0
 40
0
 40
1
 40
1
 40
1
 40
1
 10
176.571520
 20
68.086910
 30
0.0
 10
175.165000
 20
69.493430
 30
0.0
 10
174.374820
 20
71.401080
 30
0.0
 10
174.374820
 20
73.390200
 30
0.0
  0
LWPOLYLINE
  5
142
100
AcDbEntity
  8
Layer_1
 62
7
100
AcDbPolyline
 90
4
 70
1
 10
174.056957
 20
212.793967
 30
0.0
 10
174.056957
 20
182.794065
 30
0.0
 10
110.057118
 20
182.794065
 30
0.0
 10
110.057118
 20
212.793967
 30
0.0
  0
SPLINE
  5
143
100
AcDbEntity
  8
Layer_1
 62
7
100
AcDbSpline
 70
8
 71
3
 72
8
 73
4
 74
0
 40
0
 40
0
 40
0
 40
0
 40
1
 40
1
 40
1
 40
1
 10
94.374930
 20
73.390200
 30
0.0
 10
94.374930
 20
75.379320
 30
0.0
 10
95.165100
 20
77.286980
 30
0.0
 10
96.571630
 20
78.693500
 30
0.0
  0
SPLINE
  5
144
100
AcDbEntity
  8
Layer_1
 62
7
100
AcDbSpline
 70
8
 71
3
 72
8
 73
4
 74
0
 40
0
 40
0
 40
0
 40
0
 40
1
 40
1
 40
1
 40
1
 10
96.571630
 20
78.693500
 30
0.0
 10
97.978150
 20
80.100020
 30
0.0
 10
99.885800
 20
80.890200
 30
0.0
 10
101.874910
 20
80.890200
 30
0.0
  0
SPLINE
  5
145
100
AcDbEntity
  8
Layer_1
 62
7
100
AcDbSpline
 70
8
 71
3
 72
8
 73
4
 74
0
 40
0
 40
0
 40
0
 40
0
 40
1
 40
1
 40
1
 40
1
 10
101.874910
 20
80.890200
 30
0.0
 10
103.864050
 20
80.890200
 30
0.0
 10
105.771690
 20
80.100020
 30
0.0
 10
107.178220
 20
78.693500
 30
0.0
  0
SPLINE
  5
146
100
AcDbEntity
  8
Layer_1
 62
7
100
AcDbSpline
 70
8
 71
3
 72
8
 73
4
 74
0
 40
0
 40
0
 40
0
 40
0
 40
1
 40
1
 40
1
 40
1
 10
107.178220
 20
78.693500
 30
0.0
 10
108.584740
 20
77.286980
 30
0.0
 10
109.374920
 20
75.379320
 30
0.0
 10
109.374920
 20
73.390200
 30
0.0
  0
SPLINE
  5
147
100
AcDbEntity
  8
Layer_1
 62
7
100
AcDbSpline
 70
8
 71
3
 72
8
 73
4
 74
0
 40
0
 40
0
 40
0
 40
0
 40
1
 40
1
 40
1
 40
1
 10
109.374920
 20
73.390200
 30
0.0
 10
109.374920
 20
71.401080
 30
0.0
 10
108.584740
 20
69.493430
 30
0.0
 10
107.178220
 20
68.086910
 30
0.0
  0
SPLINE
  5
148
100
AcDbEntity
  8
Layer_1
 62
7
100
AcDbSpline
 70
8
 71
3
 72
8
 73
4
 74
0
 40
0
 40
0
 40
0
 40
0
 40
1
 40
1
 40
1
 40
1
 10
107.178220
 20
68.086910
 30
0.0
 10
105.771690
 20
66.680390
 30
0.0
 10
103.864050
 20
65.890210
 30
0.0
 10
101.874910
 20
65.890210
 30
0.0
  0
SPLINE
  5
149
100
AcDbEntity
  8
Layer_1
 62
7
100
AcDbSpline
 70
8
 71
3
 72
8
 73
4
 74
0
 40
0
 40
0
 40
0
 40
0
 40
1
 40
1
 40
1
 40
1
 10
101.874910
 20
65.890210
 30
0.0
 10
99.885800
 20
65.890210
 30
0.0
 10
97.978150
 20
66.680390
 30
0.0
 10
96.571630
 20
68.086910
 30
0.0
  0
SPLINE
  5
14a
100
AcDbEntity
  8
Layer_1
 62
7
100
AcDbSpline
 70
8
 71
3
 72
8
 73
4
 74
0
 40
0
 40
0
 40
0
 40
0
 40
1
 40
1
 40
1
 40
1
 10
96.571630
 20
68.086910
 30
0.0
 10
95.165100
 20
69.493430
 30
0.0
 10
94.374930
 20
71.401080
 30
0.0
 10
94.374930
 20
73.390200
 30
0.0
  0
SPLINE
  5
14b
100
AcDbEntity
  8
Layer_1
 62
7
100
AcDbSpline
 70
8
 71
3
 72
8
 73
4
 74
0
 40
0
 40
0
 40
0
 40
0
 40
1
 40
1
 40
1
 40
1
 10
174.374820
 20
103.390170
 30
0.0
 10
174.374820
 20
105.379290
 30
0.0
 10
175.165000
 20
107.286940
 30
0.0
 10
176.571520
 20
108.693460
 30
0.0
  0
SPLINE
  5
14c
100
AcDbEntity
  8
Layer_1
 62
7
100
AcDbSpline
 70
8
 71
3
 72
8
 73
4
 74
0
 40
0
 40
0
 40
0
 40
0
 40
1
 40
1
 40
1
 40
1
 10
176.571520
 20
108.693460
 30
0.0
 10
177.978050
 20
110.099980
 30
0.0
 10
179.885690
 20
110.890150
 30
0.0
 10
181.874830
 20
110.890150
 30
0.0
  0
SPLINE
  5
14d
100
AcDbEntity
  8
Layer_1
 62
7
100
AcDbSpline
 70
8
 71
3
 72
8
 73
4
 74
0
 40
0
 40
0
 40
0
 40
0
 40
1
 40
1
 40
1
 40
1
 10
181.874830
 20
110.890150
 30
0.0
 10
183.863940
 20
110.890150
 30
0.0
 10
185.771589
 20
110.099980
 30
0.0
 10
187.178109
 20
108.693460
 30
0.0
  0
SPLINE
  5
14e
100
AcDbEntity
  8
Layer_1
 62
7
100
AcDbSpline
 70
8
 71
3
 72
8
 73
4
 74
0
 40
0
 40
0
 40
0
 40
0
 40
1
 40
1
 40
1
 40
1
 10
187.178109
 20
108.693460
 30
0.0
 10
188.584639
 20
107.286940
 30
0.0
 10
189.374809
 20
105.379290
 30
0.0
 10
189.374809
 20
103.390170
 30
0.0
  0
SPLINE
  5
14f
100
AcDbEntity
  8
Layer_1
 62
7
100
AcDbSpline
 70
8
 71
3
 72
8
 73
4
 74
0
 40
0
 40
0
 40
0
 40
0
 40
1
 40
1
 40
1
 40
1
 10
189.374809
 20
103.390170
 30
0.0
 10
189.374809
 20
101.401050
 30
0.0
 10
188.584639
 20
99.493390
 30
0.0
 10
187.178109
 20
98.086870
 30
0.0
  0
SPLINE
  5
150
100
AcDbEntity
  8
Layer_1
 62
7
100
AcDbSpline
 70
8
 71
3
 72
8
 73
4
 74
0
 40
0
 40
0
 40
0
 40
0
 40
1
 40
1
 40
1
 40
1
 10
187.178109
 20
98.086870
 30
0.0
 10
185.771589
 20
96.680350
 30
0.0
 10
183.863940
 20
95.890180
 30
0.0
 10
181.874830
 20
95.890180
 30
0.0
  0
SPLINE
  5
151
100
AcDbEntity
  8
Layer_1
 62
7
100
AcDbSpline
 70
8
 71
3
 72
8
 73
4
 74
0
 40
0
 40
0
 40
0
 40
0
 40
1
 40
1
 40
1
 40
1
 10
181.874830
 20
95.890180
 30
0.0
 10
179.885690
 20
95.890180
 30
0.0
 10
177.978050
 20
96.680350
 30
0.0
 10
176.571520
 20
98.086870
 30
0.0
  0
SPLINE
  5
152
100
AcDbEntity
  8
Layer_1
 62
7
100
AcDbSpline
 70
8
 71
3
 72
8
 73
4
 74
0
 40
0
 40
0
 40
0
 40
0
 40
1
 40
1
 40
1
 40
1
 10
176.571520
 20
98.086870
 30
0.0
 10
175.165000
 20
99.493390
 30
0.0
 10
174.374820
 20
101.401050
 30
0.0
 10
174.374820
 20
103.390170
 30
0.0
  0
SPLINE
  5
153
100
AcDbEntity
  8
Layer_1
 62
7
100
AcDbSpline
 70
8
 71
3
 72
8
 73
4
 74
0
 40
0
 40
0
 40
0
 40
0
 40
1
 40
1
 40
1
 40
1
 10
94.374930
 20
103.390170
 30
0.0
 10
94.374930
 20
105.379290
 30
0.0
 10
95.165100
 20
107.286940
 30
0.0
 10
96.571630
 20
108.693460
 30
0.0
  0
SPLINE
  5
154
100
AcDbEntity
  8
Layer_1
 62
7
100
AcDbSpline
 70
8
 71
3
 72
8
 73
4
 74
0
 40
0
 40
0
 40
0
 40
0
 40
1
 40
1
 40
1
 40
1
 10
96.571630
 20
108.693460
 30
0.0
 10
97.978150
 20
110.099980
 30
0.0
 10
99.885800
 20
110.890150
 30
0.0
 10
101.874910
 20
110.890150
 30
0.0
  0
SPLINE
  5
155
100
AcDbEntity
  8
Layer_1
 62
7
100
AcDbSpline
 70
8
 71
3
 72
8
 73
4
 74
0
 40
0
 40
0
 40
0
 40
0
 40
1
 40
1
 40
1
 40
1
 10
101.874910
 20
110.890150
 30
0.0
 10
103.864050
 20
110.890150
 30
0.0
 10
105.771690
 20
110.099980
 30
0.0
 10
107.178220
 20
108.693460
 30
0.0
  0
SPLINE
  5
156
100
AcDbEntity
  8
Layer_1
 62
7
100
AcDbSpline
 70
8
 71
3
 72
8
 73
4
 74
0
 40
0
 40
0
 40
0
 40
0
 40
1
 40
1
 40
1
 40
1
 10
107.178220
 20
108.693460
 30
0.0
 10
108.584740
 20
107.286940
 30
0.0
 10
109.374920
 20
105.379290
 30
0.0
 10
109.374920
 20
103.390170
 30
0.0
  0
SPLINE
  5
157
100
AcDbEntity
  8
Layer_1
 62
7
100
AcDbSpline
 70
8
 71
3
 72
8
 73
4
 74
0
 40
0
 40
0
 40
0
 40
0
 40
1
 40
1
 40
1
 40
1
 10
109.374920
 20
103.390170
 30
0.0
 10
109.374920
 20
101.401050
 30
0.0
 10
108.584740
 20
99.493390
 30
0.0
 10
107.178220
 20
98.086870
 30
0.0
  0
SPLINE
  5
158
100
AcDbEntity
  8
Layer_1
 62
7
100
AcDbSpline
 70
8
 71
3
 72
8
 73
4
 74
0
 40
0
 40
0
 40
0
 40
0
 40
1
 40
1
 40
1
 40
1
 10
107.178220
 20
98.086870
 30
0.0
 10
105.771690
 20
96.680350
 30
0.0
 10
103.864050
 20
95.890180
 30
0.0
 10
101.874910
 20
95.890180
 30
0.0
  0
SPLINE
  5
159
100
AcDbEntity
  8
Layer_1
 62
7
100
AcDbSpline
 70
8
 71
3
 72
8
 73
4
 74
0
 40
0
 40
0
 40
0
 40
0
 40
1
 40
1
 40
1
 40
1
 10
101.874910
 20
95.890180
 30
0.0
 10
99.885800
 20
95.890180
 30
0.0
 10
97.978150
 20
96.680350
 30
0.0
 10
96.571630
 20
98.086870
 30
0.0
  0
SPLINE
  5
15a
100
AcDbEntity
  8
Layer_1
 62
7
100
AcDbSpline
 70
8
 71
3
 72
8
 73
4
 74
0
 40
0
 40
0
 40
0
 40
0
 40
1
 40
1
 40
1
 40
1
 10
96.571630
 20
98.086870
 30
0.0
 10
95.165100
 20
99.493390
 30
0.0
 10
94.374930
 20
101.401050
 30
0.0
 10
94.374930
 20
103.390170
 30
0.0
  0
LWPOLYLINE
  5
15b
100
AcDbEntity
  8
Layer_1
 62
7
100
AcDbPolyline
 90
4
 70
0
 10
5.562890
 20
16.133260
 30
0.0
 10
5.562890
 20
159.702240
 30
0.0
 10
279.131709
 20
159.702240
 30
0.0
 10
279.131709
 20
16.133260
 30
0.0
  0
LWPOLYLINE
  5
15c
100
AcDbEntity
  8
Layer_1
 62
7
100
AcDbPolyline
 90
2
 70
0
 10
137.874860
 20
159.867720
 30
0.0
 10
145.874880
 20
159.867720
 30
0.0
  0
ENDSEC
  0
SECTION
  2
OBJECTS
  0
DICTIONARY
  5
C
330
0
100
AcDbDictionary
  3
ACAD_GROUP
350
D
  3
ACAD_MLINESTYLE
350
17
  0
DICTIONARY
  5
D
330
C
100
AcDbDictionary
  0
DICTIONARY
  5
1A
330
C
100
AcDbDictionary
  0
DICTIONARY
  5
17
330
C
100
AcDbDictionary
  3
STANDARD
350
18
  0
DICTIONARY
  5
19
330
C
100
AcDbDictionary
  0
ENDSEC
  0
EOF
