  0
SECTION
  2
HEADER
  9
$ACADVER
  1
AC1014
  9
$HANDSEED
  5
FFFF
  9
$MEASUREMENT
 70
     1
  0
ENDSEC
  0
SECTION
  2
TABLES
  0
TABLE
  2
VPORT
  5
8
330
0
100
AcDbSymbolTable
 70
     4
  0
VPORT
  5
2E
330
8
100
AcDbSymbolTableRecord
100
AcDbViewportTableRecord
  2
*ACTIVE
 70
     0
 10
0.0
 20
0.0
 11
1.0
 21
1.0
 12
210.0
 22
148.5
 13
0.0
 23
0.0
 14
10.0
 24
10.0
 15
10.0
 25
10.0
 16
0.0
 26
0.0
 36
1.0
 17
0.0
 27
0.0
 37
0.0
 40
341.0
 41
1.24
 42
50.0
 43
0.0
 44
0.0
 50
0.0
 51
0.0
 71
     0
 72
   100
 73
     1
 74
     3
 75
     0
 76
     0
 77
     0
 78
     0
  0
ENDTAB
  0
TABLE
  2
LTYPE
  5
5
330
0
100
AcDbSymbolTable
 70
     1
  0
LTYPE
  5
14
330
5
100
AcDbSymbolTableRecord
100
AcDbLinetypeTableRecord
  2
BYBLOCK
 70
     0
  3

 72
    65
 73
     0
 40
0.0
  0
LTYPE
  5
15
330
5
100
AcDbSymbolTableRecord
100
AcDbLinetypeTableRecord
  2
BYLAYER
 70
     0
  3

 72
    65
 73
     0
 40
0.0
  0
LTYPE
  5
16
330
5
100
AcDbSymbolTableRecord
100
AcDbLinetypeTableRecord
  2
CONTINUOUS
 70
     0
  3
Solid line
 72
    65
 73
     0
 40
0.0
  0
ENDTAB
  0
TABLE
  2
LAYER
  5
2
100
AcDbSymbolTable
 70
2
  0
LAYER
  5
50
100
AcDbSymbolTableRecord
100
AcDbLayerTableRecord
  2
0
 70
0
  6
CONTINUOUS
  0
LAYER
  5
51
100
AcDbSymbolTableRecord
100
AcDbLayerTableRecord
  2
Layer_1
 70
0
  6
CONTINUOUS
  0
ENDTAB
  0
TABLE
  2
STYLE
  5
3
330
0
100
AcDbSymbolTable
 70
     1
  0
STYLE
  5
11
330
3
100
AcDbSymbolTableRecord
100
AcDbTextStyleTableRecord
  2
STANDARD
 70
     0
 40
0.0
 41
1.0
 50
0.0
 71
     0
 42
2.5
  3
txt
  4

  0
ENDTAB
  0
TABLE
  2
VIEW
  5
6
330
0
100
AcDbSymbolTable
 70
     0
  0
ENDTAB
  0
TABLE
  2
UCS
  5
7
330
0
100
AcDbSymbolTable
 70
     0
  0
ENDTAB
  0
TABLE
  2
APPID
  5
9
330
0
100
AcDbSymbolTable
 70
     2
  0
APPID
  5
12
330
9
100
AcDbSymbolTableRecord
100
AcDbRegAppTableRecord
  2
ACAD
 70
     0
  0
ENDTAB
  0
TABLE
  2
DIMSTYLE
  5
A
330
0
100
AcDbSymbolTable
 70
     1
  0
DIMSTYLE
105
27
330
A
100
AcDbSymbolTableRecord
100
AcDbDimStyleTableRecord
  2
ISO-25
 70
     0
  3

  4

  5

  6

  7

 40
1.0
 41
2.5
 42
0.625
 43
3.75
 44
1.25
 45
0.0
 46
0.0
 47
0.0
 48
0.0
140
2.5
141
2.5
142
0.0
143
0.03937007874016
144
1.0
145
0.0
146
1.0
147
0.625
 71
     0
 72
     0
 73
     0
 74
     0
 75
     0
 76
     0
 77
     1
 78
     8
170
     0
171
     3
172
     1
173
     0
174
     0
175
     0
176
     0
177
     0
178
     0
270
     2
271
     2
272
     2
273
     2
274
     3
340
11
275
     0
280
     0
281
     0
282
     0
283
     0
284
     8
285
     0
286
     0
287
     3
288
     0
  0
ENDTAB
  0
TABLE
  2
BLOCK_RECORD
  5
1
330
0
100
AcDbSymbolTable
 70
     1
  0
BLOCK_RECORD
  5
1F
330
1
100
AcDbSymbolTableRecord
100
AcDbBlockTableRecord
  2
*MODEL_SPACE
  0
BLOCK_RECORD
  5
1B
330
1
100
AcDbSymbolTableRecord
100
AcDbBlockTableRecord
  2
*PAPER_SPACE
  0
ENDTAB
  0
ENDSEC
  0
SECTION
  2
BLOCKS
  0
BLOCK
  5
20
330
1F
100
AcDbEntity
  8
0
100
AcDbBlockBegin
  2
*MODEL_SPACE
 70
     0
 10
0.0
 20
0.0
 30
0.0
  3
*MODEL_SPACE
  1

  0
ENDBLK
  5
21
330
1F
100
AcDbEntity
  8
0
100
AcDbBlockEnd
  0
BLOCK
  5
1C
330
1B
100
AcDbEntity
 67
     1
  8
0
100
AcDbBlockBegin
  2
*PAPER_SPACE
  1

  0
ENDBLK
  5
1D
330
1B
100
AcDbEntity
 67
     1
  8
0
100
AcDbBlockEnd
  0
ENDSEC
  0
SECTION
  2
ENTITIES
  0
LWPOLYLINE
  5
100
100
AcDbEntity
  8
Layer_1
 62
7
100
AcDbPolyline
 90
11
 70
1
 10
7.269870
 20
30.895771
 30
0.0
 10
7.269870
 20
38.895741
 30
0.0
 10
5.269880
 20
38.895741
 30
0.0
 10
5.269880
 20
48.895741
 30
0.0
 10
7.269870
 20
48.895741
 30
0.0
 10
7.269870
 20
55.895741
 30
0.0
 10
14.269860
 20
55.895741
 30
0.0
 10
14.269860
 20
57.895761
 30
0.0
 10
24.269850
 20
57.895761
 30
0.0
 10
24.269850
 20
55.895741
 30
0.0
 10
32.269830
 20
55.895741
 30
0.0
  0
LWPOLYLINE
  5
101
100
AcDbEntity
  8
Layer_1
 62
7
100
AcDbPolyline
 90
11
 70
1
 10
30.319340
 20
47.846271
 30
0.0
 10
30.319340
 20
39.846251
 30
0.0
 10
32.319320
 20
39.846251
 30
0.0
 10
32.319320
 20
29.846301
 30
0.0
 10
30.319340
 20
29.846301
 30
0.0
 10
30.319340
 20
22.846301
 30
0.0
 10
23.319350
 20
22.846301
 30
0.0
 10
23.319350
 20
20.846291
 30
0.0
 10
13.319370
 20
20.846291
 30
0.0
 10
13.319370
 20
22.846301
 30
0.0
 10
5.319380
 20
22.846301
 30
0.0
  0
LWPOLYLINE
  5
102
100
AcDbEntity
  8
Layer_1
 62
7
100
AcDbPolyline
 90
11
 70
1
 10
30.319340
 20
87.846221
 30
0.0
 10
30.319340
 20
79.846251
 30
0.0
 10
32.319330
 20
79.846251
 30
0.0
 10
32.319330
 20
69.846241
 30
0.0
 10
30.319340
 20
69.846241
 30
0.0
 10
30.319340
 20
62.846241
 30
0.0
 10
23.319350
 20
62.846241
 30
0.0
 10
23.319350
 20
60.846231
 30
0.0
 10
13.319370
 20
60.846231
 30
0.0
 10
13.319370
 20
62.846241
 30
0.0
 10
5.319380
 20
62.846241
 30
0.0
  0
LWPOLYLINE
  5
103
100
AcDbEntity
  8
Layer_1
 62
7
100
AcDbPolyline
 90
11
 70
1
 10
7.132282
 20
72.620653
 30
0.0
 10
7.132282
 20
80.620623
 30
0.0
 10
5.132292
 20
80.620623
 30
0.0
 10
5.132292
 20
90.620631
 30
0.0
 10
7.132282
 20
90.620631
 30
0.0
 10
7.132282
 20
97.620631
 30
0.0
 10
14.132271
 20
97.620631
 30
0.0
 10
14.132271
 20
99.620641
 30
0.0
 10
24.132261
 20
99.620641
 30
0.0
 10
24.132261
 20
97.620631
 30
0.0
 10
32.132241
 20
97.620631
 30
0.0
  0
LWPOLYLINE
  5
104
100
AcDbEntity
  8
Layer_1
 62
7
100
AcDbPolyline
 90
27
 70
1
 10
46.401790
 20
35.409351
 30
0.0
 10
46.401790
 20
40.409321
 30
0.0
 10
44.401790
 20
40.409321
 30
0.0
 10
44.401790
 20
50.409321
 30
0.0
 10
46.401790
 20
50.409321
 30
0.0
 10
46.401790
 20
60.409301
 30
0.0
 10
44.401790
 20
60.409301
 30
0.0
 10
44.401790
 20
70.409311
 30
0.0
 10
46.401790
 20
70.409311
 30
0.0
 10
46.401790
 20
80.409291
 30
0.0
 10
44.401790
 20
80.409291
 30
0.0
 10
44.401790
 20
90.409271
 30
0.0
 10
46.401790
 20
90.409271
 30
0.0
 10
46.401790
 20
95.409291
 30
0.0
 10
51.401770
 20
95.409291
 30
0.0
 10
51.401770
 20
97.409271
 30
0.0
 10
61.401750
 20
97.409271
 30
0.0
 10
61.401750
 20
95.409291
 30
0.0
 10
71.401760
 20
95.409291
 30
0.0
 10
71.401760
 20
97.409271
 30
0.0
 10
81.401740
 20
97.409271
 30
0.0
 10
81.401740
 20
95.409291
 30
0.0
 10
91.401720
 20
95.409291
 30
0.0
 10
91.401720
 20
97.409271
 30
0.0
 10
101.401720
 20
97.409271
 30
0.0
 10
101.401720
 20
95.409291
 30
0.0
 10
106.401710
 20
95.409291
 30
0.0
  0
LWPOLYLINE
  5
105
100
AcDbEntity
  8
Layer_1
 62
7
100
AcDbPolyline
 90
27
 70
1
 10
46.402090
 20
116.645170
 30
0.0
 10
46.402090
 20
121.645160
 30
0.0
 10
44.402090
 20
121.645160
 30
0.0
 10
44.402090
 20
131.645160
 30
0.0
 10
46.402090
 20
131.645160
 30
0.0
 10
46.402090
 20
141.645140
 30
0.0
 10
44.402090
 20
141.645140
 30
0.0
 10
44.402090
 20
151.645120
 30
0.0
 10
46.402090
 20
151.645120
 30
0.0
 10
46.402090
 20
161.645100
 30
0.0
 10
44.402090
 20
161.645100
 30
0.0
 10
44.402090
 20
171.645110
 30
0.0
 10
46.402090
 20
171.645110
 30
0.0
 10
46.402090
 20
176.645100
 30
0.0
 10
51.402090
 20
176.645100
 30
0.0
 10
51.402090
 20
178.645080
 30
0.0
 10
61.402070
 20
178.645080
 30
0.0
 10
61.402070
 20
176.645100
 30
0.0
 10
71.402050
 20
176.645100
 30
0.0
 10
71.402050
 20
178.645080
 30
0.0
 10
81.402060
 20
178.645080
 30
0.0
 10
81.402060
 20
176.645100
 30
0.0
 10
91.402040
 20
176.645100
 30
0.0
 10
91.402040
 20
178.645080
 30
0.0
 10
101.402020
 20
178.645080
 30
0.0
 10
101.402020
 20
176.645100
 30
0.0
 10
106.402010
 20
176.645100
 30
0.0
  0
LWPOLYLINE
  5
106
100
AcDbEntity
  8
Layer_1
 62
7
100
AcDbPolyline
 90
27
 70
1
 10
104.589110
 20
82.846211
 30
0.0
 10
104.589110
 20
77.846191
 30
0.0
 10
106.589090
 20
77.846191
 30
0.0
 10
106.589090
 20
67.846241
 30
0.0
 10
104.589110
 20
67.846241
 30
0.0
 10
104.589110
 20
57.846231
 30
0.0
 10
106.589090
 20
57.846231
 30
0.0
 10
106.589090
 20
47.846251
 30
0.0
 10
104.589110
 20
47.846251
 30
0.0
 10
104.589110
 20
37.846251
 30
0.0
 10
106.589090
 20
37.846251
 30
0.0
 10
106.589090
 20
27.846271
 30
0.0
 10
104.589110
 20
27.846271
 30
0.0
 10
104.589110
 20
22.846281
 30
0.0
 10
99.589120
 20
22.846281
 30
0.0
 10
99.589120
 20
20.846291
 30
0.0
 10
89.589140
 20
20.846291
 30
0.0
 10
89.589140
 20
22.846281
 30
0.0
 10
79.589130
 20
22.846281
 30
0.0
 10
79.589130
 20
20.846291
 30
0.0
 10
69.589150
 20
20.846291
 30
0.0
 10
69.589150
 20
22.846281
 30
0.0
 10
59.589170
 20
22.846281
 30
0.0
 10
59.589170
 20
20.846291
 30
0.0
 10
49.589160
 20
20.846291
 30
0.0
 10
49.589160
 20
22.846281
 30
0.0
 10
44.589180
 20
22.846281
 30
0.0
  0
SPLINE
  5
107
100
AcDbEntity
  8
Layer_1
 62
7
100
AcDbSpline
 70
8
 71
3
 72
8
 73
4
 74
0
 40
0
 40
0
 40
0
 40
0
 40
1
 40
1
 40
1
 40
1
 10
20.132740
 20
105.846960
 30
0.0
 10
16.154500
 20
105.846960
 30
0.0
 10
12.339190
 20
107.427320
 30
0.0
 10
9.526150
 20
110.240340
 30
0.0
  0
SPLINE
  5
108
100
AcDbEntity
  8
Layer_1
 62
7
100
AcDbSpline
 70
8
 71
3
 72
8
 73
4
 74
0
 40
0
 40
0
 40
0
 40
0
 40
1
 40
1
 40
1
 40
1
 10
9.526150
 20
110.240340
 30
0.0
 10
6.713110
 20
113.053390
 30
0.0
 10
5.132750
 20
116.868680
 30
0.0
 10
5.132750
 20
120.846930
 30
0.0
  0
SPLINE
  5
109
100
AcDbEntity
  8
Layer_1
 62
7
100
AcDbSpline
 70
8
 71
3
 72
8
 73
4
 74
0
 40
0
 40
0
 40
0
 40
0
 40
1
 40
1
 40
1
 40
1
 10
5.132750
 20
120.846930
 30
0.0
 10
5.132750
 20
124.825180
 30
0.0
 10
6.713110
 20
128.640500
 30
0.0
 10
9.526150
 20
131.453520
 30
0.0
  0
SPLINE
  5
10a
100
AcDbEntity
  8
Layer_1
 62
7
100
AcDbSpline
 70
8
 71
3
 72
8
 73
4
 74
0
 40
0
 40
0
 40
0
 40
0
 40
1
 40
1
 40
1
 40
1
 10
9.526150
 20
131.453520
 30
0.0
 10
12.339190
 20
134.266570
 30
0.0
 10
16.154500
 20
135.846900
 30
0.0
 10
20.132740
 20
135.846900
 30
0.0
  0
SPLINE
  5
10b
100
AcDbEntity
  8
Layer_1
 62
7
100
AcDbSpline
 70
8
 71
3
 72
8
 73
4
 74
0
 40
0
 40
0
 40
0
 40
0
 40
1
 40
1
 40
1
 40
1
 10
20.132430
 20
122.346560
 30
0.0
 10
20.530250
 20
122.346560
 30
0.0
 10
20.911780
 20
122.188530
 30
0.0
 10
21.193090
 20
121.907220
 30
0.0
  0
SPLINE
  5
10c
100
AcDbEntity
  8
Layer_1
 62
7
100
AcDbSpline
 70
8
 71
3
 72
8
 73
4
 74
0
 40
0
 40
0
 40
0
 40
0
 40
1
 40
1
 40
1
 40
1
 10
21.193090
 20
121.907220
 30
0.0
 10
21.474390
 20
121.625920
 30
0.0
 10
21.632430
 20
121.244390
 30
0.0
 10
21.632430
 20
120.846560
 30
0.0
  0
SPLINE
  5
10d
100
AcDbEntity
  8
Layer_1
 62
7
100
AcDbSpline
 70
8
 71
3
 72
8
 73
4
 74
0
 40
0
 40
0
 40
0
 40
0
 40
1
 40
1
 40
1
 40
1
 10
21.632430
 20
120.846560
 30
0.0
 10
21.632430
 20
120.448730
 30
0.0
 10
21.474390
 20
120.067200
 30
0.0
 10
21.193090
 20
119.785900
 30
0.0
  0
SPLINE
  5
10e
100
AcDbEntity
  8
Layer_1
 62
7
100
AcDbSpline
 70
8
 71
3
 72
8
 73
4
 74
0
 40
0
 40
0
 40
0
 40
0
 40
1
 40
1
 40
1
 40
1
 10
21.193090
 20
119.785900
 30
0.0
 10
20.911780
 20
119.504590
 30
0.0
 10
20.530250
 20
119.346560
 30
0.0
 10
20.132430
 20
119.346560
 30
0.0
  0
SPLINE
  5
10f
100
AcDbEntity
  8
Layer_1
 62
7
100
AcDbSpline
 70
8
 71
3
 72
8
 73
4
 74
0
 40
0
 40
0
 40
0
 40
0
 40
1
 40
1
 40
1
 40
1
 10
20.132430
 20
119.346560
 30
0.0
 10
19.734610
 20
119.346560
 30
0.0
 10
19.353070
 20
119.504590
 30
0.0
 10
19.071770
 20
119.785900
 30
0.0
  0
SPLINE
  5
110
100
AcDbEntity
  8
Layer_1
 62
7
100
AcDbSpline
 70
8
 71
3
 72
8
 73
4
 74
0
 40
0
 40
0
 40
0
 40
0
 40
1
 40
1
 40
1
 40
1
 10
19.071770
 20
119.785900
 30
0.0
 10
18.790470
 20
120.067200
 30
0.0
 10
18.632430
 20
120.448730
 30
0.0
 10
18.632430
 20
120.846560
 30
0.0
  0
SPLINE
  5
111
100
AcDbEntity
  8
Layer_1
 62
7
100
AcDbSpline
 70
8
 71
3
 72
8
 73
4
 74
0
 40
0
 40
0
 40
0
 40
0
 40
1
 40
1
 40
1
 40
1
 10
18.632430
 20
120.846560
 30
0.0
 10
18.632430
 20
121.244390
 30
0.0
 10
18.790470
 20
121.625920
 30
0.0
 10
19.071770
 20
121.907220
 30
0.0
  0
SPLINE
  5
112
100
AcDbEntity
  8
Layer_1
 62
7
100
AcDbSpline
 70
8
 71
3
 72
8
 73
4
 74
0
 40
0
 40
0
 40
0
 40
0
 40
1
 40
1
 40
1
 40
1
 10
19.071770
 20
121.907220
 30
0.0
 10
19.353070
 20
122.188530
 30
0.0
 10
19.734610
 20
122.346560
 30
0.0
 10
20.132430
 20
122.346560
 30
0.0
  0
LWPOLYLINE
  5
113
100
AcDbEntity
  8
Layer_1
 62
7
100
AcDbPolyline
 90
27
 70
1
 10
104.589110
 20
162.993230
 30
0.0
 10
104.589110
 20
157.993220
 30
0.0
 10
106.589090
 20
157.993220
 30
0.0
 10
106.589090
 20
147.993240
 30
0.0
 10
104.589110
 20
147.993240
 30
0.0
 10
104.589110
 20
137.993260
 30
0.0
 10
106.589090
 20
137.993260
 30
0.0
 10
106.589090
 20
127.993250
 30
0.0
 10
104.589110
 20
127.993250
 30
0.0
 10
104.589110
 20
117.993270
 30
0.0
 10
106.589090
 20
117.993270
 30
0.0
 10
106.589090
 20
107.993271
 30
0.0
 10
104.589110
 20
107.993271
 30
0.0
 10
104.589110
 20
102.993301
 30
0.0
 10
99.589120
 20
102.993301
 30
0.0
 10
99.589120
 20
100.993321
 30
0.0
 10
89.589140
 20
100.993321
 30
0.0
 10
89.589140
 20
102.993301
 30
0.0
 10
79.589130
 20
102.993301
 30
0.0
 10
79.589130
 20
100.993321
 30
0.0
 10
69.589150
 20
100.993321
 30
0.0
 10
69.589150
 20
102.993301
 30
0.0
 10
59.589170
 20
102.993301
 30
0.0
 10
59.589170
 20
100.993321
 30
0.0
 10
49.589160
 20
100.993321
 30
0.0
 10
49.589160
 20
102.993301
 30
0.0
 10
44.589180
 20
102.993301
 30
0.0
  0
SPLINE
  5
114
100
AcDbEntity
  8
Layer_1
 62
7
100
AcDbSpline
 70
8
 71
3
 72
8
 73
4
 74
0
 40
0
 40
0
 40
0
 40
0
 40
1
 40
1
 40
1
 40
1
 10
20.132410
 20
138.899450
 30
0.0
 10
16.154170
 20
138.899450
 30
0.0
 10
12.338870
 20
140.479810
 30
0.0
 10
9.525820
 20
143.292830
 30
0.0
  0
SPLINE
  5
115
100
AcDbEntity
  8
Layer_1
 62
7
100
AcDbSpline
 70
8
 71
3
 72
8
 73
4
 74
0
 40
0
 40
0
 40
0
 40
0
 40
1
 40
1
 40
1
 40
1
 10
9.525820
 20
143.292830
 30
0.0
 10
6.712780
 20
146.105880
 30
0.0
 10
5.132430
 20
149.921200
 30
0.0
 10
5.132430
 20
153.899450
 30
0.0
  0
SPLINE
  5
116
100
AcDbEntity
  8
Layer_1
 62
7
100
AcDbSpline
 70
8
 71
3
 72
8
 73
4
 74
0
 40
0
 40
0
 40
0
 40
0
 40
1
 40
1
 40
1
 40
1
 10
5.132430
 20
153.899450
 30
0.0
 10
5.132430
 20
157.877670
 30
0.0
 10
6.712780
 20
161.692990
 30
0.0
 10
9.525820
 20
164.506010
 30
0.0
  0
SPLINE
  5
117
100
AcDbEntity
  8
Layer_1
 62
7
100
AcDbSpline
 70
8
 71
3
 72
8
 73
4
 74
0
 40
0
 40
0
 40
0
 40
0
 40
1
 40
1
 40
1
 40
1
 10
9.525820
 20
164.506010
 30
0.0
 10
12.338870
 20
167.319060
 30
0.0
 10
16.154170
 20
168.899420
 30
0.0
 10
20.132410
 20
168.899420
 30
0.0
  0
LWPOLYLINE
  5
118
100
AcDbEntity
  8
Layer_1
 62
7
100
AcDbPolyline
 90
2
 70
0
 10
28.488850
 20
105.846720
 30
0.0
 10
23.176000
 20
105.846720
 30
0.0
  0
SPLINE
  5
119
100
AcDbEntity
  8
Layer_1
 62
7
100
AcDbSpline
 70
8
 71
3
 72
8
 73
4
 74
0
 40
0
 40
0
 40
0
 40
0
 40
1
 40
1
 40
1
 40
1
 10
20.132110
 20
155.399080
 30
0.0
 10
20.529930
 20
155.399080
 30
0.0
 10
20.911460
 20
155.241040
 30
0.0
 10
21.192760
 20
154.959740
 30
0.0
  0
SPLINE
  5
11a
100
AcDbEntity
  8
Layer_1
 62
7
100
AcDbSpline
 70
8
 71
3
 72
8
 73
4
 74
0
 40
0
 40
0
 40
0
 40
0
 40
1
 40
1
 40
1
 40
1
 10
21.192760
 20
154.959740
 30
0.0
 10
21.474070
 20
154.678430
 30
0.0
 10
21.632100
 20
154.296900
 30
0.0
 10
21.632100
 20
153.899080
 30
0.0
  0
SPLINE
  5
11b
100
AcDbEntity
  8
Layer_1
 62
7
100
AcDbSpline
 70
8
 71
3
 72
8
 73
4
 74
0
 40
0
 40
0
 40
0
 40
0
 40
1
 40
1
 40
1
 40
1
 10
21.632100
 20
153.899080
 30
0.0
 10
21.632100
 20
153.501250
 30
0.0
 10
21.474070
 20
153.119720
 30
0.0
 10
21.192760
 20
152.838410
 30
0.0
  0
SPLINE
  5
11c
100
AcDbEntity
  8
Layer_1
 62
7
100
AcDbSpline
 70
8
 71
3
 72
8
 73
4
 74
0
 40
0
 40
0
 40
0
 40
0
 40
1
 40
1
 40
1
 40
1
 10
21.192760
 20
152.838410
 30
0.0
 10
20.911460
 20
152.557110
 30
0.0
 10
20.529930
 20
152.399070
 30
0.0
 10
20.132110
 20
152.399070
 30
0.0
  0
SPLINE
  5
11d
100
AcDbEntity
  8
Layer_1
 62
7
100
AcDbSpline
 70
8
 71
3
 72
8
 73
4
 74
0
 40
0
 40
0
 40
0
 40
0
 40
1
 40
1
 40
1
 40
1
 10
20.132110
 20
152.399070
 30
0.0
 10
19.734280
 20
152.399070
 30
0.0
 10
19.352750
 20
152.557110
 30
0.0
 10
19.071450
 20
152.838410
 30
0.0
  0
SPLINE
  5
11e
100
AcDbEntity
  8
Layer_1
 62
7
100
AcDbSpline
 70
8
 71
3
 72
8
 73
4
 74
0
 40
0
 40
0
 40
0
 40
0
 40
1
 40
1
 40
1
 40
1
 10
19.071450
 20
152.838410
 30
0.0
 10
18.790140
 20
153.119720
 30
0.0
 10
18.632110
 20
153.501250
 30
0.0
 10
18.632110
 20
153.899080
 30
0.0
  0
SPLINE
  5
11f
100
AcDbEntity
  8
Layer_1
 62
7
100
AcDbSpline
 70
8
 71
3
 72
8
 73
4
 74
0
 40
0
 40
0
 40
0
 40
0
 40
1
 40
1
 40
1
 40
1
 10
18.632110
 20
153.899080
 30
0.0
 10
18.632110
 20
154.296900
 30
0.0
 10
18.790140
 20
154.678430
 30
0.0
 10
19.071450
 20
154.959740
 30
0.0
  0
SPLINE
  5
120
100
AcDbEntity
  8
Layer_1
 62
7
100
AcDbSpline
 70
8
 71
3
 72
8
 73
4
 74
0
 40
0
 40
0
 40
0
 40
0
 40
1
 40
1
 40
1
 40
1
 10
19.071450
 20
154.959740
 30
0.0
 10
19.352750
 20
155.241040
 30
0.0
 10
19.734280
 20
155.399080
 30
0.0
 10
20.132110
 20
155.399080
 30
0.0
  0
LWPOLYLINE
  5
121
100
AcDbEntity
  8
Layer_1
 62
7
100
AcDbPolyline
 90
13
 70
0
 10
20.082430
 20
105.846720
 30
0.0
 10
30.034490
 20
105.846720
 30
0.0
 10
31.532340
 20
105.846720
 30
0.0
 10
31.532340
 20
110.863590
 30
0.0
 10
33.532330
 20
110.863590
 30
0.0
 10
33.532330
 20
117.886930
 30
0.0
 10
31.532340
 20
117.886930
 30
0.0
 10
31.532340
 20
123.906940
 30
0.0
 10
33.532330
 20
123.906940
 30
0.0
 10
33.532330
 20
130.930280
 30
0.0
 10
31.532340
 20
130.930280
 30
0.0
 10
31.532540
 20
135.846900
 30
0.0
 10
20.082430
 20
135.846900
 30
0.0
  0
LWPOLYLINE
  5
122
100
AcDbEntity
  8
Layer_1
 62
7
100
AcDbPolyline
 90
2
 70
0
 10
28.488520
 20
138.899210
 30
0.0
 10
23.175670
 20
138.899210
 30
0.0
  0
SPLINE
  5
123
100
AcDbEntity
  8
Layer_1
 62
7
100
AcDbSpline
 70
8
 71
3
 72
8
 73
4
 74
0
 40
0
 40
0
 40
0
 40
0
 40
1
 40
1
 40
1
 40
1
 10
20.132410
 20
171.906460
 30
0.0
 10
16.154170
 20
171.906460
 30
0.0
 10
12.338870
 20
173.486810
 30
0.0
 10
9.525820
 20
176.299840
 30
0.0
  0
SPLINE
  5
124
100
AcDbEntity
  8
Layer_1
 62
7
100
AcDbSpline
 70
8
 71
3
 72
8
 73
4
 74
0
 40
0
 40
0
 40
0
 40
0
 40
1
 40
1
 40
1
 40
1
 10
9.525820
 20
176.299840
 30
0.0
 10
6.712780
 20
179.112860
 30
0.0
 10
5.132430
 20
182.928180
 30
0.0
 10
5.132430
 20
186.906430
 30
0.0
  0
SPLINE
  5
125
100
AcDbEntity
  8
Layer_1
 62
7
100
AcDbSpline
 70
8
 71
3
 72
8
 73
4
 74
0
 40
0
 40
0
 40
0
 40
0
 40
1
 40
1
 40
1
 40
1
 10
5.132430
 20
186.906430
 30
0.0
 10
5.132430
 20
190.884680
 30
0.0
 10
6.712780
 20
194.700000
 30
0.0
 10
9.525820
 20
197.513020
 30
0.0
  0
SPLINE
  5
126
100
AcDbEntity
  8
Layer_1
 62
7
100
AcDbSpline
 70
8
 71
3
 72
8
 73
4
 74
0
 40
0
 40
0
 40
0
 40
0
 40
1
 40
1
 40
1
 40
1
 10
9.525820
 20
197.513020
 30
0.0
 10
12.338870
 20
200.326040
 30
0.0
 10
16.154170
 20
201.906400
 30
0.0
 10
20.132410
 20
201.906400
 30
0.0
  0
SPLINE
  5
127
100
AcDbEntity
  8
Layer_1
 62
7
100
AcDbSpline
 70
8
 71
3
 72
8
 73
4
 74
0
 40
0
 40
0
 40
0
 40
0
 40
1
 40
1
 40
1
 40
1
 10
20.132110
 20
188.406060
 30
0.0
 10
20.529930
 20
188.406060
 30
0.0
 10
20.911460
 20
188.248020
 30
0.0
 10
21.192760
 20
187.966720
 30
0.0
  0
SPLINE
  5
128
100
AcDbEntity
  8
Layer_1
 62
7
100
AcDbSpline
 70
8
 71
3
 72
8
 73
4
 74
0
 40
0
 40
0
 40
0
 40
0
 40
1
 40
1
 40
1
 40
1
 10
21.192760
 20
187.966720
 30
0.0
 10
21.474070
 20
187.685410
 30
0.0
 10
21.632100
 20
187.303890
 30
0.0
 10
21.632100
 20
186.906060
 30
0.0
  0
SPLINE
  5
129
100
AcDbEntity
  8
Layer_1
 62
7
100
AcDbSpline
 70
8
 71
3
 72
8
 73
4
 74
0
 40
0
 40
0
 40
0
 40
0
 40
1
 40
1
 40
1
 40
1
 10
21.632100
 20
186.906060
 30
0.0
 10
21.632100
 20
186.508230
 30
0.0
 10
21.474070
 20
186.126700
 30
0.0
 10
21.192760
 20
185.845400
 30
0.0
  0
SPLINE
  5
12a
100
AcDbEntity
  8
Layer_1
 62
7
100
AcDbSpline
 70
8
 71
3
 72
8
 73
4
 74
0
 40
0
 40
0
 40
0
 40
0
 40
1
 40
1
 40
1
 40
1
 10
21.192760
 20
185.845400
 30
0.0
 10
20.911460
 20
185.564090
 30
0.0
 10
20.529930
 20
185.406060
 30
0.0
 10
20.132110
 20
185.406060
 30
0.0
  0
SPLINE
  5
12b
100
AcDbEntity
  8
Layer_1
 62
7
100
AcDbSpline
 70
8
 71
3
 72
8
 73
4
 74
0
 40
0
 40
0
 40
0
 40
0
 40
1
 40
1
 40
1
 40
1
 10
20.132110
 20
185.406060
 30
0.0
 10
19.734280
 20
185.406060
 30
0.0
 10
19.352750
 20
185.564090
 30
0.0
 10
19.071450
 20
185.845400
 30
0.0
  0
SPLINE
  5
12c
100
AcDbEntity
  8
Layer_1
 62
7
100
AcDbSpline
 70
8
 71
3
 72
8
 73
4
 74
0
 40
0
 40
0
 40
0
 40
0
 40
1
 40
1
 40
1
 40
1
 10
19.071450
 20
185.845400
 30
0.0
 10
18.790140
 20
186.126700
 30
0.0
 10
18.632110
 20
186.508230
 30
0.0
 10
18.632110
 20
186.906060
 30
0.0
  0
SPLINE
  5
12d
100
AcDbEntity
  8
Layer_1
 62
7
100
AcDbSpline
 70
8
 71
3
 72
8
 73
4
 74
0
 40
0
 40
0
 40
0
 40
0
 40
1
 40
1
 40
1
 40
1
 10
18.632110
 20
186.906060
 30
0.0
 10
18.632110
 20
187.303890
 30
0.0
 10
18.790140
 20
187.685410
 30
0.0
 10
19.071450
 20
187.966720
 30
0.0
  0
SPLINE
  5
12e
100
AcDbEntity
  8
Layer_1
 62
7
100
AcDbSpline
 70
8
 71
3
 72
8
 73
4
 74
0
 40
0
 40
0
 40
0
 40
0
 40
1
 40
1
 40
1
 40
1
 10
19.071450
 20
187.966720
 30
0.0
 10
19.352750
 20
188.248020
 30
0.0
 10
19.734280
 20
188.406060
 30
0.0
 10
20.132110
 20
188.406060
 30
0.0
  0
LWPOLYLINE
  5
12f
100
AcDbEntity
  8
Layer_1
 62
7
100
AcDbPolyline
 90
13
 70
0
 10
20.082100
 20
138.899210
 30
0.0
 10
30.034170
 20
138.899210
 30
0.0
 10
31.532020
 20
138.899210
 30
0.0
 10
31.532020
 20
143.916080
 30
0.0
 10
33.532010
 20
143.916080
 30
0.0
 10
33.532010
 20
150.939450
 30
0.0
 10
31.532020
 20
150.939450
 30
0.0
 10
31.532020
 20
156.959430
 30
0.0
 10
33.532010
 20
156.959430
 30
0.0
 10
33.532010
 20
163.982770
 30
0.0
 10
31.532020
 20
163.982770
 30
0.0
 10
31.532210
 20
168.899420
 30
0.0
 10
20.082100
 20
168.899420
 30
0.0
  0
SPLINE
  5
130
100
AcDbEntity
  8
Layer_1
 62
7
100
AcDbSpline
 70
8
 71
3
 72
8
 73
4
 74
0
 40
0
 40
0
 40
0
 40
0
 40
1
 40
1
 40
1
 40
1
 10
20.132410
 20
204.958940
 30
0.0
 10
16.154170
 20
204.958940
 30
0.0
 10
12.338870
 20
206.539300
 30
0.0
 10
9.525820
 20
209.352320
 30
0.0
  0
SPLINE
  5
131
100
AcDbEntity
  8
Layer_1
 62
7
100
AcDbSpline
 70
8
 71
3
 72
8
 73
4
 74
0
 40
0
 40
0
 40
0
 40
0
 40
1
 40
1
 40
1
 40
1
 10
9.525820
 20
209.352320
 30
0.0
 10
6.712780
 20
212.165370
 30
0.0
 10
5.132430
 20
215.980690
 30
0.0
 10
5.132430
 20
219.958910
 30
0.0
  0
SPLINE
  5
132
100
AcDbEntity
  8
Layer_1
 62
7
100
AcDbSpline
 70
8
 71
3
 72
8
 73
4
 74
0
 40
0
 40
0
 40
0
 40
0
 40
1
 40
1
 40
1
 40
1
 10
5.132430
 20
219.958910
 30
0.0
 10
5.132430
 20
223.937160
 30
0.0
 10
6.712780
 20
227.752480
 30
0.0
 10
9.525820
 20
230.565500
 30
0.0
  0
SPLINE
  5
133
100
AcDbEntity
  8
Layer_1
 62
7
100
AcDbSpline
 70
8
 71
3
 72
8
 73
4
 74
0
 40
0
 40
0
 40
0
 40
0
 40
1
 40
1
 40
1
 40
1
 10
9.525820
 20
230.565500
 30
0.0
 10
12.338870
 20
233.378550
 30
0.0
 10
16.154170
 20
234.958910
 30
0.0
 10
20.132410
 20
234.958910
 30
0.0
  0
LWPOLYLINE
  5
134
100
AcDbEntity
  8
Layer_1
 62
7
100
AcDbPolyline
 90
2
 70
0
 10
28.488520
 20
171.906220
 30
0.0
 10
23.175670
 20
171.906220
 30
0.0
  0
SPLINE
  5
135
100
AcDbEntity
  8
Layer_1
 62
7
100
AcDbSpline
 70
8
 71
3
 72
8
 73
4
 74
0
 40
0
 40
0
 40
0
 40
0
 40
1
 40
1
 40
1
 40
1
 10
20.132110
 20
221.458540
 30
0.0
 10
20.529930
 20
221.458540
 30
0.0
 10
20.911460
 20
221.300510
 30
0.0
 10
21.192760
 20
221.019200
 30
0.0
  0
SPLINE
  5
136
100
AcDbEntity
  8
Layer_1
 62
7
100
AcDbSpline
 70
8
 71
3
 72
8
 73
4
 74
0
 40
0
 40
0
 40
0
 40
0
 40
1
 40
1
 40
1
 40
1
 10
21.192760
 20
221.019200
 30
0.0
 10
21.474070
 20
220.737900
 30
0.0
 10
21.632100
 20
220.356370
 30
0.0
 10
21.632100
 20
219.958540
 30
0.0
  0
SPLINE
  5
137
100
AcDbEntity
  8
Layer_1
 62
7
100
AcDbSpline
 70
8
 71
3
 72
8
 73
4
 74
0
 40
0
 40
0
 40
0
 40
0
 40
1
 40
1
 40
1
 40
1
 10
21.632100
 20
219.958540
 30
0.0
 10
21.632100
 20
219.560710
 30
0.0
 10
21.474070
 20
219.179180
 30
0.0
 10
21.192760
 20
218.897880
 30
0.0
  0
SPLINE
  5
138
100
AcDbEntity
  8
Layer_1
 62
7
100
AcDbSpline
 70
8
 71
3
 72
8
 73
4
 74
0
 40
0
 40
0
 40
0
 40
0
 40
1
 40
1
 40
1
 40
1
 10
21.192760
 20
218.897880
 30
0.0
 10
20.911460
 20
218.616600
 30
0.0
 10
20.529930
 20
218.458560
 30
0.0
 10
20.132110
 20
218.458560
 30
0.0
  0
SPLINE
  5
139
100
AcDbEntity
  8
Layer_1
 62
7
100
AcDbSpline
 70
8
 71
3
 72
8
 73
4
 74
0
 40
0
 40
0
 40
0
 40
0
 40
1
 40
1
 40
1
 40
1
 10
20.132110
 20
218.458560
 30
0.0
 10
19.734280
 20
218.458560
 30
0.0
 10
19.352750
 20
218.616600
 30
0.0
 10
19.071450
 20
218.897880
 30
0.0
  0
SPLINE
  5
13a
100
AcDbEntity
  8
Layer_1
 62
7
100
AcDbSpline
 70
8
 71
3
 72
8
 73
4
 74
0
 40
0
 40
0
 40
0
 40
0
 40
1
 40
1
 40
1
 40
1
 10
19.071450
 20
218.897880
 30
0.0
 10
18.790140
 20
219.179180
 30
0.0
 10
18.632110
 20
219.560710
 30
0.0
 10
18.632110
 20
219.958540
 30
0.0
  0
SPLINE
  5
13b
100
AcDbEntity
  8
Layer_1
 62
7
100
AcDbSpline
 70
8
 71
3
 72
8
 73
4
 74
0
 40
0
 40
0
 40
0
 40
0
 40
1
 40
1
 40
1
 40
1
 10
18.632110
 20
219.958540
 30
0.0
 10
18.632110
 20
220.356370
 30
0.0
 10
18.790140
 20
220.737900
 30
0.0
 10
19.071450
 20
221.019200
 30
0.0
  0
SPLINE
  5
13c
100
AcDbEntity
  8
Layer_1
 62
7
100
AcDbSpline
 70
8
 71
3
 72
8
 73
4
 74
0
 40
0
 40
0
 40
0
 40
0
 40
1
 40
1
 40
1
 40
1
 10
19.071450
 20
221.019200
 30
0.0
 10
19.352750
 20
221.300510
 30
0.0
 10
19.734280
 20
221.458540
 30
0.0
 10
20.132110
 20
221.458540
 30
0.0
  0
LWPOLYLINE
  5
13d
100
AcDbEntity
  8
Layer_1
 62
7
100
AcDbPolyline
 90
13
 70
0
 10
20.082100
 20
171.906220
 30
0.0
 10
30.034170
 20
171.906220
 30
0.0
 10
31.532020
 20
171.906220
 30
0.0
 10
31.532020
 20
176.923060
 30
0.0
 10
33.532010
 20
176.923060
 30
0.0
 10
33.532010
 20
183.946430
 30
0.0
 10
31.532020
 20
183.946430
 30
0.0
 10
31.532020
 20
189.966440
 30
0.0
 10
33.532010
 20
189.966440
 30
0.0
 10
33.532010
 20
196.989780
 30
0.0
 10
31.532020
 20
196.989780
 30
0.0
 10
31.532210
 20
201.906400
 30
0.0
 10
20.082100
 20
201.906400
 30
0.0
  0
LWPOLYLINE
  5
13e
100
AcDbEntity
  8
Layer_1
 62
7
100
AcDbPolyline
 90
2
 70
0
 10
28.488520
 20
204.958700
 30
0.0
 10
23.175670
 20
204.958700
 30
0.0
  0
SPLINE
  5
13f
100
AcDbEntity
  8
Layer_1
 62
7
100
AcDbSpline
 70
8
 71
3
 72
8
 73
4
 74
0
 40
0
 40
0
 40
0
 40
0
 40
1
 40
1
 40
1
 40
1
 10
267.501040
 20
25.846291
 30
0.0
 10
267.501040
 20
26.903316
 30
0.0
 10
267.922470
 20
27.917048
 30
0.0
 10
268.672610
 20
28.664480
 30
0.0
  0
SPLINE
  5
140
100
AcDbEntity
  8
Layer_1
 62
7
100
AcDbSpline
 70
8
 71
3
 72
8
 73
4
 74
0
 40
0
 40
0
 40
0
 40
0
 40
1
 40
1
 40
1
 40
1
 10
268.672610
 20
28.664480
 30
0.0
 10
269.422760
 20
29.411910
 30
0.0
 10
270.440160
 20
29.831814
 30
0.0
 10
271.501030
 20
29.831814
 30
0.0
  0
SPLINE
  5
141
100
AcDbEntity
  8
Layer_1
 62
7
100
AcDbSpline
 70
8
 71
3
 72
8
 73
4
 74
0
 40
0
 40
0
 40
0
 40
0
 40
1
 40
1
 40
1
 40
1
 10
271.501030
 20
29.831814
 30
0.0
 10
272.561910
 20
29.831814
 30
0.0
 10
273.579340
 20
29.411910
 30
0.0
 10
274.329460
 20
28.664480
 30
0.0
  0
SPLINE
  5
142
100
AcDbEntity
  8
Layer_1
 62
7
100
AcDbSpline
 70
8
 71
3
 72
8
 73
4
 74
0
 40
0
 40
0
 40
0
 40
0
 40
1
 40
1
 40
1
 40
1
 10
274.329460
 20
28.664480
 30
0.0
 10
275.079630
 20
27.917048
 30
0.0
 10
275.501060
 20
26.903316
 30
0.0
 10
275.501030
 20
25.846291
 30
0.0
  0
LWPOLYLINE
  5
143
100
AcDbEntity
  8
Layer_1
 62
7
100
AcDbPolyline
 90
13
 70
0
 10
20.082100
 20
204.958700
 30
0.0
 10
30.034170
 20
204.958700
 30
0.0
 10
31.532020
 20
204.958700
 30
0.0
 10
31.532020
 20
209.975570
 30
0.0
 10
33.532010
 20
209.975570
 30
0.0
 10
33.532010
 20
216.998940
 30
0.0
 10
31.532020
 20
216.998940
 30
0.0
 10
31.532020
 20
223.018920
 30
0.0
 10
33.532010
 20
223.018920
 30
0.0
 10
33.532010
 20
230.042260
 30
0.0
 10
31.532020
 20
230.042260
 30
0.0
 10
31.532210
 20
234.958910
 30
0.0
 10
20.082100
 20
234.958910
 30
0.0
  0
LWPOLYLINE
  5
144
100
AcDbEntity
  8
Layer_1
 62
7
100
AcDbPolyline
 90
16
 70
0
 10
380.817840
 20
165.585810
 30
0.0
 10
405.818000
 20
140.585670
 30
0.0
 10
405.818000
 20
140.585670
 30
0.0
 10
405.818000
 20
51.007781
 30
0.0
 10
405.818000
 20
51.007781
 30
0.0
 10
405.818000
 20
51.007781
 30
0.0
 10
380.817840
 20
26.007670
 30
0.0
 10
161.240120
 20
26.007670
 30
0.0
 10
136.240000
 20
51.007781
 30
0.0
 10
136.240000
 20
51.007781
 30
0.0
 10
136.240000
 20
51.007781
 30
0.0
 10
136.240000
 20
140.585670
 30
0.0
 10
161.240120
 20
165.585810
 30
0.0
 10
380.817840
 20
165.585810
 30
0.0
 10
380.817840
 20
165.585810
 30
0.0
 10
405.818000
 20
140.585670
 30
0.0
  0
SPLINE
  5
145
100
AcDbEntity
  8
Layer_1
 62
7
100
AcDbSpline
 70
8
 71
3
 72
8
 73
4
 74
0
 40
0
 40
0
 40
0
 40
0
 40
1
 40
1
 40
1
 40
1
 10
406.006800
 20
229.628570
 30
0.0
 10
400.647800
 20
229.628570
 30
0.0
 10
395.695890
 20
232.487580
 30
0.0
 10
393.016410
 20
237.128580
 30
0.0
  0
SPLINE
  5
146
100
AcDbEntity
  8
Layer_1
 62
7
100
AcDbSpline
 70
8
 71
3
 72
8
 73
4
 74
0
 40
0
 40
0
 40
0
 40
0
 40
1
 40
1
 40
1
 40
1
 10
393.016410
 20
237.128580
 30
0.0
 10
390.336920
 20
241.769590
 30
0.0
 10
390.336920
 20
247.487550
 30
0.0
 10
393.016410
 20
252.128550
 30
0.0
  0
SPLINE
  5
147
100
AcDbEntity
  8
Layer_1
 62
7
100
AcDbSpline
 70
8
 71
3
 72
8
 73
4
 74
0
 40
0
 40
0
 40
0
 40
0
 40
1
 40
1
 40
1
 40
1
 10
393.016410
 20
252.128550
 30
0.0
 10
395.695890
 20
256.769580
 30
0.0
 10
400.647800
 20
259.628560
 30
0.0
 10
406.006800
 20
259.628560
 30
0.0
  0
SPLINE
  5
148
100
AcDbEntity
  8
Layer_1
 62
7
100
AcDbSpline
 70
8
 71
3
 72
8
 73
4
 74
0
 40
0
 40
0
 40
0
 40
0
 40
1
 40
1
 40
1
 40
1
 10
342.742530
 20
258.292950
 30
0.0
 10
342.742530
 20
256.966880
 30
0.0
 10
342.215750
 20
255.695110
 30
0.0
 10
341.278060
 20
254.757430
 30
0.0
  0
SPLINE
  5
149
100
AcDbEntity
  8
Layer_1
 62
7
100
AcDbSpline
 70
8
 71
3
 72
8
 73
4
 74
0
 40
0
 40
0
 40
0
 40
0
 40
1
 40
1
 40
1
 40
1
 10
341.278060
 20
254.757430
 30
0.0
 10
340.340380
 20
253.819740
 30
0.0
 10
339.068610
 20
253.292960
 30
0.0
 10
337.742510
 20
253.292960
 30
0.0
  0
SPLINE
  5
14a
100
AcDbEntity
  8
Layer_1
 62
7
100
AcDbSpline
 70
8
 71
3
 72
8
 73
4
 74
0
 40
0
 40
0
 40
0
 40
0
 40
1
 40
1
 40
1
 40
1
 10
337.742510
 20
253.292960
 30
0.0
 10
336.416450
 20
253.292960
 30
0.0
 10
335.144680
 20
253.819740
 30
0.0
 10
334.206990
 20
254.757430
 30
0.0
  0
SPLINE
  5
14b
100
AcDbEntity
  8
Layer_1
 62
7
100
AcDbSpline
 70
8
 71
3
 72
8
 73
4
 74
0
 40
0
 40
0
 40
0
 40
0
 40
1
 40
1
 40
1
 40
1
 10
334.206990
 20
254.757430
 30
0.0
 10
333.269310
 20
255.695110
 30
0.0
 10
332.742520
 20
256.966880
 30
0.0
 10
332.742520
 20
258.292950
 30
0.0
  0
SPLINE
  5
14c
100
AcDbEntity
  8
Layer_1
 62
7
100
AcDbSpline
 70
8
 71
3
 72
8
 73
4
 74
0
 40
0
 40
0
 40
0
 40
0
 40
1
 40
1
 40
1
 40
1
 10
332.742520
 20
258.292950
 30
0.0
 10
332.742520
 20
259.619040
 30
0.0
 10
333.269310
 20
260.890810
 30
0.0
 10
334.206990
 20
261.828500
 30
0.0
  0
SPLINE
  5
14d
100
AcDbEntity
  8
Layer_1
 62
7
100
AcDbSpline
 70
8
 71
3
 72
8
 73
4
 74
0
 40
0
 40
0
 40
0
 40
0
 40
1
 40
1
 40
1
 40
1
 10
334.206990
 20
261.828500
 30
0.0
 10
335.144680
 20
262.766180
 30
0.0
 10
336.416450
 20
263.292960
 30
0.0
 10
337.742510
 20
263.292960
 30
0.0
  0
SPLINE
  5
14e
100
AcDbEntity
  8
Layer_1
 62
7
100
AcDbSpline
 70
8
 71
3
 72
8
 73
4
 74
0
 40
0
 40
0
 40
0
 40
0
 40
1
 40
1
 40
1
 40
1
 10
337.742510
 20
263.292960
 30
0.0
 10
339.068610
 20
263.292960
 30
0.0
 10
340.340380
 20
262.766180
 30
0.0
 10
341.278060
 20
261.828500
 30
0.0
  0
SPLINE
  5
14f
100
AcDbEntity
  8
Layer_1
 62
7
100
AcDbSpline
 70
8
 71
3
 72
8
 73
4
 74
0
 40
0
 40
0
 40
0
 40
0
 40
1
 40
1
 40
1
 40
1
 10
341.278060
 20
261.828500
 30
0.0
 10
342.215750
 20
260.890810
 30
0.0
 10
342.742530
 20
259.619040
 30
0.0
 10
342.742530
 20
258.292950
 30
0.0
  0
LWPOLYLINE
  5
150
100
AcDbEntity
  8
Layer_1
 62
7
100
AcDbPolyline
 90
2
 70
0
 10
275.501030
 20
25.846291
 30
0.0
 10
267.501040
 20
25.846291
 30
0.0
  0
SPLINE
  5
151
100
AcDbEntity
  8
Layer_1
 62
7
100
AcDbSpline
 70
8
 71
3
 72
8
 73
4
 74
0
 40
0
 40
0
 40
0
 40
0
 40
1
 40
1
 40
1
 40
1
 10
257.929440
 20
284.606080
 30
0.0
 10
257.929440
 20
284.208250
 30
0.0
 10
257.771410
 20
283.826750
 30
0.0
 10
257.490100
 20
283.545440
 30
0.0
  0
SPLINE
  5
152
100
AcDbEntity
  8
Layer_1
 62
7
100
AcDbSpline
 70
8
 71
3
 72
8
 73
4
 74
0
 40
0
 40
0
 40
0
 40
0
 40
1
 40
1
 40
1
 40
1
 10
257.490100
 20
283.545440
 30
0.0
 10
257.208830
 20
283.264140
 30
0.0
 10
256.827300
 20
283.106100
 30
0.0
 10
256.429470
 20
283.106100
 30
0.0
  0
SPLINE
  5
153
100
AcDbEntity
  8
Layer_1
 62
7
100
AcDbSpline
 70
8
 71
3
 72
8
 73
4
 74
0
 40
0
 40
0
 40
0
 40
0
 40
1
 40
1
 40
1
 40
1
 10
256.429470
 20
283.106100
 30
0.0
 10
256.031640
 20
283.106100
 30
0.0
 10
255.650110
 20
283.264140
 30
0.0
 10
255.368810
 20
283.545440
 30
0.0
  0
SPLINE
  5
154
100
AcDbEntity
  8
Layer_1
 62
7
100
AcDbSpline
 70
8
 71
3
 72
8
 73
4
 74
0
 40
0
 40
0
 40
0
 40
0
 40
1
 40
1
 40
1
 40
1
 10
255.368810
 20
283.545440
 30
0.0
 10
255.087500
 20
283.826750
 30
0.0
 10
254.929470
 20
284.208250
 30
0.0
 10
254.929470
 20
284.606080
 30
0.0
  0
SPLINE
  5
155
100
AcDbEntity
  8
Layer_1
 62
7
100
AcDbSpline
 70
8
 71
3
 72
8
 73
4
 74
0
 40
0
 40
0
 40
0
 40
0
 40
1
 40
1
 40
1
 40
1
 10
254.929470
 20
284.606080
 30
0.0
 10
254.929470
 20
285.003900
 30
0.0
 10
255.087500
 20
285.385430
 30
0.0
 10
255.368810
 20
285.666740
 30
0.0
  0
SPLINE
  5
156
100
AcDbEntity
  8
Layer_1
 62
7
100
AcDbSpline
 70
8
 71
3
 72
8
 73
4
 74
0
 40
0
 40
0
 40
0
 40
0
 40
1
 40
1
 40
1
 40
1
 10
255.368810
 20
285.666740
 30
0.0
 10
255.650110
 20
285.948040
 30
0.0
 10
256.031640
 20
286.106080
 30
0.0
 10
256.429470
 20
286.106080
 30
0.0
  0
SPLINE
  5
157
100
AcDbEntity
  8
Layer_1
 62
7
100
AcDbSpline
 70
8
 71
3
 72
8
 73
4
 74
0
 40
0
 40
0
 40
0
 40
0
 40
1
 40
1
 40
1
 40
1
 10
256.429470
 20
286.106080
 30
0.0
 10
256.827300
 20
286.106080
 30
0.0
 10
257.208830
 20
285.948040
 30
0.0
 10
257.490100
 20
285.666740
 30
0.0
  0
SPLINE
  5
158
100
AcDbEntity
  8
Layer_1
 62
7
100
AcDbSpline
 70
8
 71
3
 72
8
 73
4
 74
0
 40
0
 40
0
 40
0
 40
0
 40
1
 40
1
 40
1
 40
1
 10
257.490100
 20
285.666740
 30
0.0
 10
257.771410
 20
285.385430
 30
0.0
 10
257.929440
 20
285.003900
 30
0.0
 10
257.929440
 20
284.606080
 30
0.0
  0
SPLINE
  5
159
100
AcDbEntity
  8
Layer_1
 62
7
100
AcDbSpline
 70
8
 71
3
 72
8
 73
4
 74
0
 40
0
 40
0
 40
0
 40
0
 40
1
 40
1
 40
1
 40
1
 10
257.929440
 20
234.606150
 30
0.0
 10
257.929440
 20
234.208320
 30
0.0
 10
257.771410
 20
233.826790
 30
0.0
 10
257.490100
 20
233.545490
 30
0.0
  0
SPLINE
  5
15a
100
AcDbEntity
  8
Layer_1
 62
7
100
AcDbSpline
 70
8
 71
3
 72
8
 73
4
 74
0
 40
0
 40
0
 40
0
 40
0
 40
1
 40
1
 40
1
 40
1
 10
257.490100
 20
233.545490
 30
0.0
 10
257.208830
 20
233.264180
 30
0.0
 10
256.827300
 20
233.106150
 30
0.0
 10
256.429470
 20
233.106150
 30
0.0
  0
SPLINE
  5
15b
100
AcDbEntity
  8
Layer_1
 62
7
100
AcDbSpline
 70
8
 71
3
 72
8
 73
4
 74
0
 40
0
 40
0
 40
0
 40
0
 40
1
 40
1
 40
1
 40
1
 10
256.429470
 20
233.106150
 30
0.0
 10
256.031640
 20
233.106150
 30
0.0
 10
255.650110
 20
233.264180
 30
0.0
 10
255.368810
 20
233.545490
 30
0.0
  0
SPLINE
  5
15c
100
AcDbEntity
  8
Layer_1
 62
7
100
AcDbSpline
 70
8
 71
3
 72
8
 73
4
 74
0
 40
0
 40
0
 40
0
 40
0
 40
1
 40
1
 40
1
 40
1
 10
255.368810
 20
233.545490
 30
0.0
 10
255.087500
 20
233.826790
 30
0.0
 10
254.929470
 20
234.208320
 30
0.0
 10
254.929470
 20
234.606150
 30
0.0
  0
SPLINE
  5
15d
100
AcDbEntity
  8
Layer_1
 62
7
100
AcDbSpline
 70
8
 71
3
 72
8
 73
4
 74
0
 40
0
 40
0
 40
0
 40
0
 40
1
 40
1
 40
1
 40
1
 10
254.929470
 20
234.606150
 30
0.0
 10
254.929470
 20
235.003980
 30
0.0
 10
255.087500
 20
235.385510
 30
0.0
 10
255.368810
 20
235.666810
 30
0.0
  0
SPLINE
  5
15e
100
AcDbEntity
  8
Layer_1
 62
7
100
AcDbSpline
 70
8
 71
3
 72
8
 73
4
 74
0
 40
0
 40
0
 40
0
 40
0
 40
1
 40
1
 40
1
 40
1
 10
255.368810
 20
235.666810
 30
0.0
 10
255.650110
 20
235.948120
 30
0.0
 10
256.031640
 20
236.106150
 30
0.0
 10
256.429470
 20
236.106150
 30
0.0
  0
SPLINE
  5
15f
100
AcDbEntity
  8
Layer_1
 62
7
100
AcDbSpline
 70
8
 71
3
 72
8
 73
4
 74
0
 40
0
 40
0
 40
0
 40
0
 40
1
 40
1
 40
1
 40
1
 10
256.429470
 20
236.106150
 30
0.0
 10
256.827300
 20
236.106150
 30
0.0
 10
257.208830
 20
235.948120
 30
0.0
 10
257.490100
 20
235.666810
 30
0.0
  0
SPLINE
  5
160
100
AcDbEntity
  8
Layer_1
 62
7
100
AcDbSpline
 70
8
 71
3
 72
8
 73
4
 74
0
 40
0
 40
0
 40
0
 40
0
 40
1
 40
1
 40
1
 40
1
 10
257.490100
 20
235.666810
 30
0.0
 10
257.771410
 20
235.385510
 30
0.0
 10
257.929440
 20
235.003980
 30
0.0
 10
257.929440
 20
234.606150
 30
0.0
  0
LWPOLYLINE
  5
161
100
AcDbEntity
  8
Layer_1
 62
7
100
AcDbPolyline
 90
16
 70
1
 10
166.168110
 20
314.867450
 30
0.0
 10
166.168110
 20
314.867450
 30
0.0
 10
166.168110
 20
314.867450
 30
0.0
 10
375.745840
 20
314.867450
 30
0.0
 10
405.745700
 20
284.867490
 30
0.0
 10
405.745700
 20
284.867490
 30
0.0
 10
405.745700
 20
284.867490
 30
0.0
 10
405.745700
 20
205.289600
 30
0.0
 10
375.745840
 20
175.289350
 30
0.0
 10
375.745840
 20
175.289350
 30
0.0
 10
375.745840
 20
175.289350
 30
0.0
 10
166.167110
 20
175.289350
 30
0.0
 10
166.167110
 20
175.289350
 30
0.0
 10
166.167110
 20
175.289350
 30
0.0
 10
136.167700
 20
205.289600
 30
0.0
 10
136.167700
 20
284.867490
 30
0.0
  0
LWPOLYLINE
  5
162
100
AcDbEntity
  8
Layer_1
 62
7
100
AcDbPolyline
 90
2
 70
0
 10
406.006800
 20
259.628560
 30
0.0
 10
406.006800
 20
229.628570
 30
0.0
  0
ENDSEC
  0
SECTION
  2
OBJECTS
  0
DICTIONARY
  5
C
330
0
100
AcDbDictionary
  3
ACAD_GROUP
350
D
  3
ACAD_MLINESTYLE
350
17
  0
DICTIONARY
  5
D
330
C
100
AcDbDictionary
  0
DICTIONARY
  5
1A
330
C
100
AcDbDictionary
  0
DICTIONARY
  5
17
330
C
100
AcDbDictionary
  3
STANDARD
350
18
  0
DICTIONARY
  5
19
330
C
100
AcDbDictionary
  0
ENDSEC
  0
EOF
