  0
SECTION
  2
HEADER
  9
$ACADVER
  1
AC1014
  9
$HANDSEED
  5
FFFF
  9
$MEASUREMENT
 70
     1
  0
ENDSEC
  0
SECTION
  2
TABLES
  0
TABLE
  2
VPORT
  5
8
330
0
100
AcDbSymbolTable
 70
     4
  0
VPORT
  5
2E
330
8
100
AcDbSymbolTableRecord
100
AcDbViewportTableRecord
  2
*ACTIVE
 70
     0
 10
0.0
 20
0.0
 11
1.0
 21
1.0
 12
210.0
 22
148.5
 13
0.0
 23
0.0
 14
10.0
 24
10.0
 15
10.0
 25
10.0
 16
0.0
 26
0.0
 36
1.0
 17
0.0
 27
0.0
 37
0.0
 40
341.0
 41
1.24
 42
50.0
 43
0.0
 44
0.0
 50
0.0
 51
0.0
 71
     0
 72
   100
 73
     1
 74
     3
 75
     0
 76
     0
 77
     0
 78
     0
  0
ENDTAB
  0
TABLE
  2
LTYPE
  5
5
330
0
100
AcDbSymbolTable
 70
     1
  0
LTYPE
  5
14
330
5
100
AcDbSymbolTableRecord
100
AcDbLinetypeTableRecord
  2
BYBLOCK
 70
     0
  3

 72
    65
 73
     0
 40
0.0
  0
LTYPE
  5
15
330
5
100
AcDbSymbolTableRecord
100
AcDbLinetypeTableRecord
  2
BYLAYER
 70
     0
  3

 72
    65
 73
     0
 40
0.0
  0
LTYPE
  5
16
330
5
100
AcDbSymbolTableRecord
100
AcDbLinetypeTableRecord
  2
CONTINUOUS
 70
     0
  3
Solid line
 72
    65
 73
     0
 40
0.0
  0
ENDTAB
  0
TABLE
  2
LAYER
  5
2
100
AcDbSymbolTable
 70
2
  0
LAYER
  5
50
100
AcDbSymbolTableRecord
100
AcDbLayerTableRecord
  2
0
 70
0
  6
CONTINUOUS
  0
LAYER
  5
51
100
AcDbSymbolTableRecord
100
AcDbLayerTableRecord
  2
Layer_1
 70
0
  6
CONTINUOUS
  0
ENDTAB
  0
TABLE
  2
STYLE
  5
3
330
0
100
AcDbSymbolTable
 70
     1
  0
STYLE
  5
11
330
3
100
AcDbSymbolTableRecord
100
AcDbTextStyleTableRecord
  2
STANDARD
 70
     0
 40
0.0
 41
1.0
 50
0.0
 71
     0
 42
2.5
  3
txt
  4

  0
ENDTAB
  0
TABLE
  2
VIEW
  5
6
330
0
100
AcDbSymbolTable
 70
     0
  0
ENDTAB
  0
TABLE
  2
UCS
  5
7
330
0
100
AcDbSymbolTable
 70
     0
  0
ENDTAB
  0
TABLE
  2
APPID
  5
9
330
0
100
AcDbSymbolTable
 70
     2
  0
APPID
  5
12
330
9
100
AcDbSymbolTableRecord
100
AcDbRegAppTableRecord
  2
ACAD
 70
     0
  0
ENDTAB
  0
TABLE
  2
DIMSTYLE
  5
A
330
0
100
AcDbSymbolTable
 70
     1
  0
DIMSTYLE
105
27
330
A
100
AcDbSymbolTableRecord
100
AcDbDimStyleTableRecord
  2
ISO-25
 70
     0
  3

  4

  5

  6

  7

 40
1.0
 41
2.5
 42
0.625
 43
3.75
 44
1.25
 45
0.0
 46
0.0
 47
0.0
 48
0.0
140
2.5
141
2.5
142
0.0
143
0.03937007874016
144
1.0
145
0.0
146
1.0
147
0.625
 71
     0
 72
     0
 73
     0
 74
     0
 75
     0
 76
     0
 77
     1
 78
     8
170
     0
171
     3
172
     1
173
     0
174
     0
175
     0
176
     0
177
     0
178
     0
270
     2
271
     2
272
     2
273
     2
274
     3
340
11
275
     0
280
     0
281
     0
282
     0
283
     0
284
     8
285
     0
286
     0
287
     3
288
     0
  0
ENDTAB
  0
TABLE
  2
BLOCK_RECORD
  5
1
330
0
100
AcDbSymbolTable
 70
     1
  0
BLOCK_RECORD
  5
1F
330
1
100
AcDbSymbolTableRecord
100
AcDbBlockTableRecord
  2
*MODEL_SPACE
  0
BLOCK_RECORD
  5
1B
330
1
100
AcDbSymbolTableRecord
100
AcDbBlockTableRecord
  2
*PAPER_SPACE
  0
ENDTAB
  0
ENDSEC
  0
SECTION
  2
BLOCKS
  0
BLOCK
  5
20
330
1F
100
AcDbEntity
  8
0
100
AcDbBlockBegin
  2
*MODEL_SPACE
 70
     0
 10
0.0
 20
0.0
 30
0.0
  3
*MODEL_SPACE
  1

  0
ENDBLK
  5
21
330
1F
100
AcDbEntity
  8
0
100
AcDbBlockEnd
  0
BLOCK
  5
1C
330
1B
100
AcDbEntity
 67
     1
  8
0
100
AcDbBlockBegin
  2
*PAPER_SPACE
  1

  0
ENDBLK
  5
1D
330
1B
100
AcDbEntity
 67
     1
  8
0
100
AcDbBlockEnd
  0
ENDSEC
  0
SECTION
  2
ENTITIES
  0
LWPOLYLINE
  5
100
100
AcDbEntity
  8
Layer_1
 62
1
100
AcDbPolyline
 90
54
 70
1
 10
55.407458
 20
314.866622
 30
0.0
 10
45.407490
 20
314.866622
 30
0.0
 10
45.407490
 20
316.866632
 30
0.0
 10
35.407523
 20
316.866632
 30
0.0
 10
35.407523
 20
314.866622
 30
0.0
 10
25.407529
 20
314.866622
 30
0.0
 10
25.407529
 20
316.866632
 30
0.0
 10
15.407561
 20
316.866632
 30
0.0
 10
15.407561
 20
314.866622
 30
0.0
 10
5.407594
 20
314.866622
 30
0.0
 10
5.407594
 20
299.866645
 30
0.0
 10
3.407585
 20
299.866645
 30
0.0
 10
3.407585
 20
289.866677
 30
0.0
 10
5.407594
 20
289.866677
 30
0.0
 10
5.407594
 20
279.866683
 30
0.0
 10
3.407585
 20
279.866683
 30
0.0
 10
3.407585
 20
269.866743
 30
0.0
 10
5.407594
 20
269.866743
 30
0.0
 10
5.407594
 20
259.866749
 30
0.0
 10
3.407585
 20
259.866749
 30
0.0
 10
3.407585
 20
249.866781
 30
0.0
 10
5.407594
 20
249.866781
 30
0.0
 10
5.407594
 20
239.866787
 30
0.0
 10
3.407585
 20
239.866787
 30
0.0
 10
3.407585
 20
229.866846
 30
0.0
 10
5.407594
 20
229.866846
 30
0.0
 10
5.407594
 20
219.866853
 30
0.0
 10
5.407594
 20
214.866869
 30
0.0
 10
15.407561
 20
214.866869
 30
0.0
 10
15.407561
 20
212.866886
 30
0.0
 10
25.407529
 20
212.866886
 30
0.0
 10
25.407529
 20
214.866869
 30
0.0
 10
35.407523
 20
214.866869
 30
0.0
 10
35.407523
 20
212.866886
 30
0.0
 10
45.407490
 20
212.866886
 30
0.0
 10
45.407490
 20
214.866869
 30
0.0
 10
55.407458
 20
214.866869
 30
0.0
 10
55.407458
 20
229.866846
 30
0.0
 10
57.407467
 20
229.866846
 30
0.0
 10
57.407467
 20
239.866787
 30
0.0
 10
55.407458
 20
239.866787
 30
0.0
 10
55.407458
 20
249.866781
 30
0.0
 10
57.407467
 20
249.866781
 30
0.0
 10
57.407467
 20
259.866749
 30
0.0
 10
55.407458
 20
259.866749
 30
0.0
 10
55.407458
 20
269.866743
 30
0.0
 10
57.407467
 20
269.866743
 30
0.0
 10
57.407467
 20
279.866683
 30
0.0
 10
55.407458
 20
279.866683
 30
0.0
 10
55.407458
 20
289.866677
 30
0.0
 10
57.407467
 20
289.866677
 30
0.0
 10
57.407467
 20
299.866645
 30
0.0
 10
55.407458
 20
299.866645
 30
0.0
 10
55.407458
 20
309.866639
 30
0.0
  0
LWPOLYLINE
  5
101
100
AcDbEntity
  8
Layer_1
 62
1
100
AcDbPolyline
 90
46
 70
1
 10
109.440968
 20
62.320985
 30
0.0
 10
109.440968
 20
71.820943
 30
0.0
 10
107.440959
 20
71.820943
 30
0.0
 10
107.440959
 20
81.820937
 30
0.0
 10
109.440968
 20
81.820937
 30
0.0
 10
109.440968
 20
91.320895
 30
0.0
 10
92.441008
 20
91.320895
 30
0.0
 10
92.441008
 20
87.320559
 30
0.0
 10
82.441014
 20
87.320559
 30
0.0
 10
82.441014
 20
91.320895
 30
0.0
 10
72.441073
 20
91.320895
 30
0.0
 10
72.441073
 20
87.320559
 30
0.0
 10
62.441079
 20
87.320559
 30
0.0
 10
62.441079
 20
91.320895
 30
0.0
 10
52.441112
 20
91.320895
 30
0.0
 10
52.441112
 20
87.320559
 30
0.0
 10
42.441118
 20
87.320559
 30
0.0
 10
42.441118
 20
91.320895
 30
0.0
 10
32.441177
 20
91.320895
 30
0.0
 10
32.441177
 20
87.320559
 30
0.0
 10
22.441183
 20
87.320559
 30
0.0
 10
22.441183
 20
91.320895
 30
0.0
 10
12.441189
 20
91.320895
 30
0.0
 10
5.441223
 20
91.320895
 30
0.0
 10
5.441223
 20
81.820937
 30
0.0
 10
7.441232
 20
81.820937
 30
0.0
 10
7.441232
 20
71.820943
 30
0.0
 10
5.441223
 20
71.820943
 30
0.0
 10
5.441223
 20
62.320985
 30
0.0
 10
22.441183
 20
62.320985
 30
0.0
 10
22.441183
 20
64.320968
 30
0.0
 10
32.441177
 20
64.320968
 30
0.0
 10
32.441177
 20
62.320985
 30
0.0
 10
42.441118
 20
62.320985
 30
0.0
 10
42.441118
 20
64.320968
 30
0.0
 10
52.441112
 20
64.320968
 30
0.0
 10
52.441112
 20
62.320985
 30
0.0
 10
62.441079
 20
62.320985
 30
0.0
 10
62.441079
 20
64.320968
 30
0.0
 10
72.441073
 20
64.320968
 30
0.0
 10
72.441073
 20
62.320985
 30
0.0
 10
82.441014
 20
62.320985
 30
0.0
 10
82.441014
 20
64.320968
 30
0.0
 10
92.441008
 20
64.320968
 30
0.0
 10
92.441008
 20
62.320985
 30
0.0
 10
102.440975
 20
62.320985
 30
0.0
  0
LWPOLYLINE
  5
102
100
AcDbEntity
  8
Layer_1
 62
1
100
AcDbPolyline
 90
46
 70
1
 10
107.910914
 20
17.024486
 30
0.0
 10
107.910914
 20
26.524339
 30
0.0
 10
105.910904
 20
26.524339
 30
0.0
 10
105.910904
 20
36.524253
 30
0.0
 10
107.910914
 20
36.524253
 30
0.0
 10
107.910914
 20
46.024370
 30
0.0
 10
90.910953
 20
46.024370
 30
0.0
 10
90.910953
 20
42.023875
 30
0.0
 10
80.910959
 20
42.023875
 30
0.0
 10
80.910959
 20
46.024370
 30
0.0
 10
70.911045
 20
46.024370
 30
0.0
 10
70.911045
 20
42.023875
 30
0.0
 10
60.911051
 20
42.023875
 30
0.0
 10
60.911051
 20
46.024370
 30
0.0
 10
50.911084
 20
46.024370
 30
0.0
 10
50.911084
 20
42.023875
 30
0.0
 10
40.911090
 20
42.023875
 30
0.0
 10
40.911090
 20
46.024370
 30
0.0
 10
30.911149
 20
46.024370
 30
0.0
 10
30.911149
 20
42.023875
 30
0.0
 10
20.911155
 20
42.023875
 30
0.0
 10
20.911155
 20
46.024370
 30
0.0
 10
10.911161
 20
46.024370
 30
0.0
 10
3.911195
 20
46.024370
 30
0.0
 10
3.911195
 20
36.524253
 30
0.0
 10
5.911204
 20
36.524253
 30
0.0
 10
5.911204
 20
26.524339
 30
0.0
 10
3.911195
 20
26.524339
 30
0.0
 10
3.911195
 20
17.024486
 30
0.0
 10
20.911155
 20
17.024486
 30
0.0
 10
20.911155
 20
19.024469
 30
0.0
 10
30.911149
 20
19.024469
 30
0.0
 10
30.911149
 20
17.024486
 30
0.0
 10
40.911090
 20
17.024486
 30
0.0
 10
40.911090
 20
19.024469
 30
0.0
 10
50.911084
 20
19.024469
 30
0.0
 10
50.911084
 20
17.024486
 30
0.0
 10
60.911051
 20
17.024486
 30
0.0
 10
60.911051
 20
19.024469
 30
0.0
 10
70.911045
 20
19.024469
 30
0.0
 10
70.911045
 20
17.024486
 30
0.0
 10
80.910959
 20
17.024486
 30
0.0
 10
80.910959
 20
19.024469
 30
0.0
 10
90.910953
 20
19.024469
 30
0.0
 10
90.910953
 20
17.024486
 30
0.0
 10
100.910921
 20
17.024486
 30
0.0
  0
LWPOLYLINE
  5
103
100
AcDbEntity
  8
Layer_1
 62
1
100
AcDbPolyline
 90
28
 70
1
 10
55.132410
 20
172.915390
 30
0.0
 10
55.132410
 20
182.415349
 30
0.0
 10
57.132393
 20
182.415349
 30
0.0
 10
57.132393
 20
192.415342
 30
0.0
 10
55.132410
 20
192.415342
 30
0.0
 10
55.132410
 20
201.915301
 30
0.0
 10
45.132416
 20
201.915301
 30
0.0
 10
45.132416
 20
197.914965
 30
0.0
 10
35.132449
 20
197.914965
 30
0.0
 10
35.132449
 20
201.915301
 30
0.0
 10
25.132482
 20
201.915301
 30
0.0
 10
25.132482
 20
197.914965
 30
0.0
 10
15.132514
 20
197.914965
 30
0.0
 10
15.132514
 20
201.915301
 30
0.0
 10
5.132520
 20
201.915301
 30
0.0
 10
5.132520
 20
192.415342
 30
0.0
 10
3.132511
 20
192.415342
 30
0.0
 10
3.132511
 20
182.415349
 30
0.0
 10
5.132520
 20
182.415349
 30
0.0
 10
5.132520
 20
172.915390
 30
0.0
 10
15.132514
 20
172.915390
 30
0.0
 10
15.132514
 20
174.915373
 30
0.0
 10
25.132482
 20
174.915373
 30
0.0
 10
25.132482
 20
172.915390
 30
0.0
 10
35.132449
 20
172.915390
 30
0.0
 10
35.132449
 20
174.915373
 30
0.0
 10
45.132416
 20
174.915373
 30
0.0
 10
45.132416
 20
172.915390
 30
0.0
  0
SPLINE
  5
104
100
AcDbEntity
  8
Layer_1
 62
7
100
AcDbSpline
 70
8
 71
3
 72
8
 73
4
 74
0
 40
0
 40
0
 40
0
 40
0
 40
1
 40
1
 40
1
 40
1
 10
105.357336
 20
295.789238
 30
0.0
 10
103.368227
 20
295.789238
 30
0.0
 10
101.460584
 20
296.579415
 30
0.0
 10
100.054061
 20
297.985912
 30
0.0
  0
SPLINE
  5
105
100
AcDbEntity
  8
Layer_1
 62
7
100
AcDbSpline
 70
8
 71
3
 72
8
 73
4
 74
0
 40
0
 40
0
 40
0
 40
0
 40
1
 40
1
 40
1
 40
1
 10
100.054061
 20
297.985912
 30
0.0
 10
98.647538
 20
299.392435
 30
0.0
 10
97.857360
 20
301.300079
 30
0.0
 10
97.857360
 20
303.289214
 30
0.0
  0
SPLINE
  5
106
100
AcDbEntity
  8
Layer_1
 62
7
100
AcDbSpline
 70
8
 71
3
 72
8
 73
4
 74
0
 40
0
 40
0
 40
0
 40
0
 40
1
 40
1
 40
1
 40
1
 10
97.857360
 20
303.289214
 30
0.0
 10
97.857360
 20
305.278322
 30
0.0
 10
98.647538
 20
307.185992
 30
0.0
 10
100.054061
 20
308.592489
 30
0.0
  0
SPLINE
  5
107
100
AcDbEntity
  8
Layer_1
 62
7
100
AcDbSpline
 70
8
 71
3
 72
8
 73
4
 74
0
 40
0
 40
0
 40
0
 40
0
 40
1
 40
1
 40
1
 40
1
 10
100.054061
 20
308.592489
 30
0.0
 10
101.460584
 20
309.999012
 30
0.0
 10
103.368227
 20
310.789189
 30
0.0
 10
105.357336
 20
310.789189
 30
0.0
  0
SPLINE
  5
108
100
AcDbEntity
  8
Layer_1
 62
7
100
AcDbSpline
 70
8
 71
3
 72
8
 73
4
 74
0
 40
0
 40
0
 40
0
 40
0
 40
1
 40
1
 40
1
 40
1
 10
105.357336
 20
310.789189
 30
0.0
 10
107.346471
 20
310.789189
 30
0.0
 10
109.254114
 20
309.999012
 30
0.0
 10
110.660638
 20
308.592489
 30
0.0
  0
SPLINE
  5
109
100
AcDbEntity
  8
Layer_1
 62
7
100
AcDbSpline
 70
8
 71
3
 72
8
 73
4
 74
0
 40
0
 40
0
 40
0
 40
0
 40
1
 40
1
 40
1
 40
1
 10
110.660638
 20
308.592489
 30
0.0
 10
112.067161
 20
307.185992
 30
0.0
 10
112.857311
 20
305.278322
 30
0.0
 10
112.857311
 20
303.289214
 30
0.0
  0
SPLINE
  5
10a
100
AcDbEntity
  8
Layer_1
 62
7
100
AcDbSpline
 70
8
 71
3
 72
8
 73
4
 74
0
 40
0
 40
0
 40
0
 40
0
 40
1
 40
1
 40
1
 40
1
 10
112.857311
 20
303.289214
 30
0.0
 10
112.857311
 20
301.300079
 30
0.0
 10
112.067161
 20
299.392435
 30
0.0
 10
110.660638
 20
297.985912
 30
0.0
  0
SPLINE
  5
10b
100
AcDbEntity
  8
Layer_1
 62
7
100
AcDbSpline
 70
8
 71
3
 72
8
 73
4
 74
0
 40
0
 40
0
 40
0
 40
0
 40
1
 40
1
 40
1
 40
1
 10
110.660638
 20
297.985912
 30
0.0
 10
109.254114
 20
296.579415
 30
0.0
 10
107.346471
 20
295.789238
 30
0.0
 10
105.357336
 20
295.789238
 30
0.0
  0
SPLINE
  5
10c
100
AcDbEntity
  8
Layer_1
 62
7
100
AcDbSpline
 70
8
 71
3
 72
8
 73
4
 74
0
 40
0
 40
0
 40
0
 40
0
 40
1
 40
1
 40
1
 40
1
 10
75.357407
 20
295.789238
 30
0.0
 10
73.368299
 20
295.789238
 30
0.0
 10
71.460655
 20
296.579415
 30
0.0
 10
70.054132
 20
297.985912
 30
0.0
  0
SPLINE
  5
10d
100
AcDbEntity
  8
Layer_1
 62
7
100
AcDbSpline
 70
8
 71
3
 72
8
 73
4
 74
0
 40
0
 40
0
 40
0
 40
0
 40
1
 40
1
 40
1
 40
1
 10
70.054132
 20
297.985912
 30
0.0
 10
68.647609
 20
299.392435
 30
0.0
 10
67.857432
 20
301.300079
 30
0.0
 10
67.857432
 20
303.289214
 30
0.0
  0
SPLINE
  5
10e
100
AcDbEntity
  8
Layer_1
 62
7
100
AcDbSpline
 70
8
 71
3
 72
8
 73
4
 74
0
 40
0
 40
0
 40
0
 40
0
 40
1
 40
1
 40
1
 40
1
 10
67.857432
 20
303.289214
 30
0.0
 10
67.857432
 20
305.278322
 30
0.0
 10
68.647609
 20
307.185992
 30
0.0
 10
70.054132
 20
308.592489
 30
0.0
  0
SPLINE
  5
10f
100
AcDbEntity
  8
Layer_1
 62
7
100
AcDbSpline
 70
8
 71
3
 72
8
 73
4
 74
0
 40
0
 40
0
 40
0
 40
0
 40
1
 40
1
 40
1
 40
1
 10
70.054132
 20
308.592489
 30
0.0
 10
71.460655
 20
309.999012
 30
0.0
 10
73.368299
 20
310.789189
 30
0.0
 10
75.357407
 20
310.789189
 30
0.0
  0
SPLINE
  5
110
100
AcDbEntity
  8
Layer_1
 62
7
100
AcDbSpline
 70
8
 71
3
 72
8
 73
4
 74
0
 40
0
 40
0
 40
0
 40
0
 40
1
 40
1
 40
1
 40
1
 10
75.357407
 20
310.789189
 30
0.0
 10
77.346542
 20
310.789189
 30
0.0
 10
79.254186
 20
309.999012
 30
0.0
 10
80.660709
 20
308.592489
 30
0.0
  0
SPLINE
  5
111
100
AcDbEntity
  8
Layer_1
 62
7
100
AcDbSpline
 70
8
 71
3
 72
8
 73
4
 74
0
 40
0
 40
0
 40
0
 40
0
 40
1
 40
1
 40
1
 40
1
 10
80.660709
 20
308.592489
 30
0.0
 10
82.067232
 20
307.185992
 30
0.0
 10
82.857409
 20
305.278322
 30
0.0
 10
82.857409
 20
303.289214
 30
0.0
  0
SPLINE
  5
112
100
AcDbEntity
  8
Layer_1
 62
7
100
AcDbSpline
 70
8
 71
3
 72
8
 73
4
 74
0
 40
0
 40
0
 40
0
 40
0
 40
1
 40
1
 40
1
 40
1
 10
82.857409
 20
303.289214
 30
0.0
 10
82.857409
 20
301.300079
 30
0.0
 10
82.067232
 20
299.392435
 30
0.0
 10
80.660709
 20
297.985912
 30
0.0
  0
SPLINE
  5
113
100
AcDbEntity
  8
Layer_1
 62
7
100
AcDbSpline
 70
8
 71
3
 72
8
 73
4
 74
0
 40
0
 40
0
 40
0
 40
0
 40
1
 40
1
 40
1
 40
1
 10
80.660709
 20
297.985912
 30
0.0
 10
79.254186
 20
296.579415
 30
0.0
 10
77.346542
 20
295.789238
 30
0.0
 10
75.357407
 20
295.789238
 30
0.0
  0
SPLINE
  5
114
100
AcDbEntity
  8
Layer_1
 62
7
100
AcDbSpline
 70
8
 71
3
 72
8
 73
4
 74
0
 40
0
 40
0
 40
0
 40
0
 40
1
 40
1
 40
1
 40
1
 10
105.357336
 20
215.789420
 30
0.0
 10
103.368227
 20
215.789420
 30
0.0
 10
101.460584
 20
216.579597
 30
0.0
 10
100.054061
 20
217.986120
 30
0.0
  0
SPLINE
  5
115
100
AcDbEntity
  8
Layer_1
 62
7
100
AcDbSpline
 70
8
 71
3
 72
8
 73
4
 74
0
 40
0
 40
0
 40
0
 40
0
 40
1
 40
1
 40
1
 40
1
 10
100.054061
 20
217.986120
 30
0.0
 10
98.647538
 20
219.392643
 30
0.0
 10
97.857360
 20
221.300287
 30
0.0
 10
97.857360
 20
223.289422
 30
0.0
  0
SPLINE
  5
116
100
AcDbEntity
  8
Layer_1
 62
7
100
AcDbSpline
 70
8
 71
3
 72
8
 73
4
 74
0
 40
0
 40
0
 40
0
 40
0
 40
1
 40
1
 40
1
 40
1
 10
97.857360
 20
223.289422
 30
0.0
 10
97.857360
 20
225.278530
 30
0.0
 10
98.647538
 20
227.186174
 30
0.0
 10
100.054061
 20
228.592697
 30
0.0
  0
SPLINE
  5
117
100
AcDbEntity
  8
Layer_1
 62
7
100
AcDbSpline
 70
8
 71
3
 72
8
 73
4
 74
0
 40
0
 40
0
 40
0
 40
0
 40
1
 40
1
 40
1
 40
1
 10
100.054061
 20
228.592697
 30
0.0
 10
101.460584
 20
229.999220
 30
0.0
 10
103.368227
 20
230.789397
 30
0.0
 10
105.357336
 20
230.789397
 30
0.0
  0
SPLINE
  5
118
100
AcDbEntity
  8
Layer_1
 62
7
100
AcDbSpline
 70
8
 71
3
 72
8
 73
4
 74
0
 40
0
 40
0
 40
0
 40
0
 40
1
 40
1
 40
1
 40
1
 10
105.357336
 20
230.789397
 30
0.0
 10
107.346471
 20
230.789397
 30
0.0
 10
109.254114
 20
229.999220
 30
0.0
 10
110.660638
 20
228.592697
 30
0.0
  0
SPLINE
  5
119
100
AcDbEntity
  8
Layer_1
 62
7
100
AcDbSpline
 70
8
 71
3
 72
8
 73
4
 74
0
 40
0
 40
0
 40
0
 40
0
 40
1
 40
1
 40
1
 40
1
 10
110.660638
 20
228.592697
 30
0.0
 10
112.067161
 20
227.186174
 30
0.0
 10
112.857311
 20
225.278530
 30
0.0
 10
112.857311
 20
223.289422
 30
0.0
  0
SPLINE
  5
11a
100
AcDbEntity
  8
Layer_1
 62
7
100
AcDbSpline
 70
8
 71
3
 72
8
 73
4
 74
0
 40
0
 40
0
 40
0
 40
0
 40
1
 40
1
 40
1
 40
1
 10
112.857311
 20
223.289422
 30
0.0
 10
112.857311
 20
221.300287
 30
0.0
 10
112.067161
 20
219.392643
 30
0.0
 10
110.660638
 20
217.986120
 30
0.0
  0
SPLINE
  5
11b
100
AcDbEntity
  8
Layer_1
 62
7
100
AcDbSpline
 70
8
 71
3
 72
8
 73
4
 74
0
 40
0
 40
0
 40
0
 40
0
 40
1
 40
1
 40
1
 40
1
 10
110.660638
 20
217.986120
 30
0.0
 10
109.254114
 20
216.579597
 30
0.0
 10
107.346471
 20
215.789420
 30
0.0
 10
105.357336
 20
215.789420
 30
0.0
  0
SPLINE
  5
11c
100
AcDbEntity
  8
Layer_1
 62
7
100
AcDbSpline
 70
8
 71
3
 72
8
 73
4
 74
0
 40
0
 40
0
 40
0
 40
0
 40
1
 40
1
 40
1
 40
1
 10
75.357407
 20
215.789420
 30
0.0
 10
73.368299
 20
215.789420
 30
0.0
 10
71.460655
 20
216.579597
 30
0.0
 10
70.054132
 20
217.986120
 30
0.0
  0
SPLINE
  5
11d
100
AcDbEntity
  8
Layer_1
 62
7
100
AcDbSpline
 70
8
 71
3
 72
8
 73
4
 74
0
 40
0
 40
0
 40
0
 40
0
 40
1
 40
1
 40
1
 40
1
 10
70.054132
 20
217.986120
 30
0.0
 10
68.647609
 20
219.392643
 30
0.0
 10
67.857432
 20
221.300287
 30
0.0
 10
67.857432
 20
223.289422
 30
0.0
  0
SPLINE
  5
11e
100
AcDbEntity
  8
Layer_1
 62
7
100
AcDbSpline
 70
8
 71
3
 72
8
 73
4
 74
0
 40
0
 40
0
 40
0
 40
0
 40
1
 40
1
 40
1
 40
1
 10
67.857432
 20
223.289422
 30
0.0
 10
67.857432
 20
225.278530
 30
0.0
 10
68.647609
 20
227.186174
 30
0.0
 10
70.054132
 20
228.592697
 30
0.0
  0
SPLINE
  5
11f
100
AcDbEntity
  8
Layer_1
 62
7
100
AcDbSpline
 70
8
 71
3
 72
8
 73
4
 74
0
 40
0
 40
0
 40
0
 40
0
 40
1
 40
1
 40
1
 40
1
 10
70.054132
 20
228.592697
 30
0.0
 10
71.460655
 20
229.999220
 30
0.0
 10
73.368299
 20
230.789397
 30
0.0
 10
75.357407
 20
230.789397
 30
0.0
  0
SPLINE
  5
120
100
AcDbEntity
  8
Layer_1
 62
7
100
AcDbSpline
 70
8
 71
3
 72
8
 73
4
 74
0
 40
0
 40
0
 40
0
 40
0
 40
1
 40
1
 40
1
 40
1
 10
75.357407
 20
230.789397
 30
0.0
 10
77.346542
 20
230.789397
 30
0.0
 10
79.254186
 20
229.999220
 30
0.0
 10
80.660709
 20
228.592697
 30
0.0
  0
SPLINE
  5
121
100
AcDbEntity
  8
Layer_1
 62
7
100
AcDbSpline
 70
8
 71
3
 72
8
 73
4
 74
0
 40
0
 40
0
 40
0
 40
0
 40
1
 40
1
 40
1
 40
1
 10
80.660709
 20
228.592697
 30
0.0
 10
82.067232
 20
227.186174
 30
0.0
 10
82.857409
 20
225.278530
 30
0.0
 10
82.857409
 20
223.289422
 30
0.0
  0
SPLINE
  5
122
100
AcDbEntity
  8
Layer_1
 62
7
100
AcDbSpline
 70
8
 71
3
 72
8
 73
4
 74
0
 40
0
 40
0
 40
0
 40
0
 40
1
 40
1
 40
1
 40
1
 10
82.857409
 20
223.289422
 30
0.0
 10
82.857409
 20
221.300287
 30
0.0
 10
82.067232
 20
219.392643
 30
0.0
 10
80.660709
 20
217.986120
 30
0.0
  0
SPLINE
  5
123
100
AcDbEntity
  8
Layer_1
 62
7
100
AcDbSpline
 70
8
 71
3
 72
8
 73
4
 74
0
 40
0
 40
0
 40
0
 40
0
 40
1
 40
1
 40
1
 40
1
 10
80.660709
 20
217.986120
 30
0.0
 10
79.254186
 20
216.579597
 30
0.0
 10
77.346542
 20
215.789420
 30
0.0
 10
75.357407
 20
215.789420
 30
0.0
  0
LWPOLYLINE
  5
124
100
AcDbEntity
  8
Layer_1
 62
1
100
AcDbPolyline
 90
28
 70
1
 10
55.132410
 20
116.339443
 30
0.0
 10
55.132410
 20
125.839428
 30
0.0
 10
57.132393
 20
125.839428
 30
0.0
 10
57.132393
 20
135.839395
 30
0.0
 10
55.132410
 20
135.839395
 30
0.0
 10
55.132410
 20
145.339380
 30
0.0
 10
45.132416
 20
145.339380
 30
0.0
 10
45.132416
 20
141.339018
 30
0.0
 10
35.132449
 20
141.339018
 30
0.0
 10
35.132449
 20
145.339380
 30
0.0
 10
25.132482
 20
145.339380
 30
0.0
 10
25.132482
 20
141.339018
 30
0.0
 10
15.132514
 20
141.339018
 30
0.0
 10
15.132514
 20
145.339380
 30
0.0
 10
5.132520
 20
145.339380
 30
0.0
 10
5.132520
 20
135.839395
 30
0.0
 10
3.132511
 20
135.839395
 30
0.0
 10
3.132511
 20
125.839428
 30
0.0
 10
5.132520
 20
125.839428
 30
0.0
 10
5.132520
 20
116.339443
 30
0.0
 10
15.132514
 20
116.339443
 30
0.0
 10
15.132514
 20
118.339426
 30
0.0
 10
25.132482
 20
118.339426
 30
0.0
 10
25.132482
 20
116.339443
 30
0.0
 10
35.132449
 20
116.339443
 30
0.0
 10
35.132449
 20
118.339426
 30
0.0
 10
45.132416
 20
118.339426
 30
0.0
 10
45.132416
 20
116.339443
 30
0.0
  0
LWPOLYLINE
  5
125
100
AcDbEntity
  8
Layer_1
 62
1
100
AcDbPolyline
 90
54
 70
1
 10
115.407310
 20
313.339161
 30
0.0
 10
105.407342
 20
313.339161
 30
0.0
 10
105.407342
 20
315.339170
 30
0.0
 10
95.407375
 20
315.339170
 30
0.0
 10
95.407375
 20
313.339161
 30
0.0
 10
85.407381
 20
313.339161
 30
0.0
 10
85.407381
 20
315.339170
 30
0.0
 10
75.407413
 20
315.339170
 30
0.0
 10
75.407413
 20
313.339161
 30
0.0
 10
65.407446
 20
313.339161
 30
0.0
 10
65.407446
 20
298.339183
 30
0.0
 10
63.407437
 20
298.339183
 30
0.0
 10
63.407437
 20
288.339216
 30
0.0
 10
65.407446
 20
288.339216
 30
0.0
 10
65.407446
 20
278.339221
 30
0.0
 10
63.407437
 20
278.339221
 30
0.0
 10
63.407437
 20
268.339280
 30
0.0
 10
65.407446
 20
268.339280
 30
0.0
 10
65.407446
 20
258.339286
 30
0.0
 10
63.407437
 20
258.339286
 30
0.0
 10
63.407437
 20
248.339319
 30
0.0
 10
65.407446
 20
248.339319
 30
0.0
 10
65.407446
 20
238.339325
 30
0.0
 10
63.407437
 20
238.339325
 30
0.0
 10
63.407437
 20
228.339385
 30
0.0
 10
65.407446
 20
228.339385
 30
0.0
 10
65.407446
 20
218.339391
 30
0.0
 10
65.407446
 20
213.339407
 30
0.0
 10
75.407413
 20
213.339407
 30
0.0
 10
75.407413
 20
211.339425
 30
0.0
 10
85.407381
 20
211.339425
 30
0.0
 10
85.407381
 20
213.339407
 30
0.0
 10
95.407375
 20
213.339407
 30
0.0
 10
95.407375
 20
211.339425
 30
0.0
 10
105.407342
 20
211.339425
 30
0.0
 10
105.407342
 20
213.339407
 30
0.0
 10
115.407310
 20
213.339407
 30
0.0
 10
115.407310
 20
228.339385
 30
0.0
 10
117.407319
 20
228.339385
 30
0.0
 10
117.407319
 20
238.339325
 30
0.0
 10
115.407310
 20
238.339325
 30
0.0
 10
115.407310
 20
248.339319
 30
0.0
 10
117.407319
 20
248.339319
 30
0.0
 10
117.407319
 20
258.339286
 30
0.0
 10
115.407310
 20
258.339286
 30
0.0
 10
115.407310
 20
268.339280
 30
0.0
 10
117.407319
 20
268.339280
 30
0.0
 10
117.407319
 20
278.339221
 30
0.0
 10
115.407310
 20
278.339221
 30
0.0
 10
115.407310
 20
288.339216
 30
0.0
 10
117.407319
 20
288.339216
 30
0.0
 10
117.407319
 20
298.339183
 30
0.0
 10
115.407310
 20
298.339183
 30
0.0
 10
115.407310
 20
308.339177
 30
0.0
  0
LWPOLYLINE
  5
126
100
AcDbEntity
  8
Layer_1
 62
1
100
AcDbPolyline
 90
93
 70
1
 10
541.996782
 20
8.339954
 30
0.0
 10
541.996782
 20
19.339913
 30
0.0
 10
539.996799
 20
19.339913
 30
0.0
 10
539.996799
 20
29.339907
 30
0.0
 10
541.996782
 20
29.339907
 30
0.0
 10
541.996782
 20
39.339874
 30
0.0
 10
539.996799
 20
39.339874
 30
0.0
 10
539.996799
 20
49.339841
 30
0.0
 10
541.996782
 20
49.339841
 30
0.0
 10
541.996782
 20
59.339814
 30
0.0
 10
539.996799
 20
59.339814
 30
0.0
 10
539.996799
 20
69.339790
 30
0.0
 10
541.996782
 20
69.339790
 30
0.0
 10
541.996782
 20
79.339765
 30
0.0
 10
539.996799
 20
79.339765
 30
0.0
 10
539.996799
 20
89.339738
 30
0.0
 10
541.996782
 20
89.339738
 30
0.0
 10
541.996782
 20
99.339713
 30
0.0
 10
539.996799
 20
99.339713
 30
0.0
 10
539.996799
 20
109.339688
 30
0.0
 10
541.996782
 20
109.339688
 30
0.0
 10
541.996782
 20
119.339661
 30
0.0
 10
539.996799
 20
119.339661
 30
0.0
 10
539.996799
 20
129.339636
 30
0.0
 10
541.996782
 20
129.339636
 30
0.0
 10
541.996782
 20
139.339614
 30
0.0
 10
539.996799
 20
139.339614
 30
0.0
 10
539.996799
 20
149.339587
 30
0.0
 10
541.996782
 20
149.339587
 30
0.0
 10
541.996782
 20
160.339559
 30
0.0
 10
524.996848
 20
160.339559
 30
0.0
 10
524.996848
 20
158.339566
 30
0.0
 10
514.996854
 20
158.339566
 30
0.0
 10
514.996854
 20
160.339559
 30
0.0
 10
504.996887
 20
160.339559
 30
0.0
 10
504.996887
 20
158.339566
 30
0.0
 10
494.996920
 20
158.339566
 30
0.0
 10
494.996920
 20
160.339559
 30
0.0
 10
484.996926
 20
160.339559
 30
0.0
 10
484.996926
 20
158.339566
 30
0.0
 10
474.996958
 20
158.339566
 30
0.0
 10
474.996958
 20
160.339559
 30
0.0
 10
464.996991
 20
160.339559
 30
0.0
 10
464.996991
 20
158.339566
 30
0.0
 10
454.997024
 20
158.339566
 30
0.0
 10
454.997024
 20
160.339559
 30
0.0
 10
444.997030
 20
160.339559
 30
0.0
 10
444.997030
 20
158.339566
 30
0.0
 10
434.997062
 20
158.339566
 30
0.0
 10
434.997062
 20
160.339559
 30
0.0
 10
424.997095
 20
160.339559
 30
0.0
 10
424.997095
 20
158.339566
 30
0.0
 10
414.997120
 20
158.339566
 30
0.0
 10
414.997120
 20
160.339559
 30
0.0
 10
404.997142
 20
160.339559
 30
0.0
 10
397.997162
 20
160.339559
 30
0.0
 10
397.997162
 20
149.339587
 30
0.0
 10
399.997158
 20
149.339587
 30
0.0
 10
399.997158
 20
139.339614
 30
0.0
 10
397.997162
 20
139.339614
 30
0.0
 10
397.997162
 20
129.339636
 30
0.0
 10
399.997158
 20
129.339636
 30
0.0
 10
399.997158
 20
119.339661
 30
0.0
 10
397.997162
 20
119.339661
 30
0.0
 10
397.997162
 20
109.339688
 30
0.0
 10
399.997158
 20
109.339688
 30
0.0
 10
399.997158
 20
99.339713
 30
0.0
 10
397.997162
 20
99.339713
 30
0.0
 10
397.997162
 20
89.339738
 30
0.0
 10
399.997158
 20
89.339738
 30
0.0
 10
399.997158
 20
79.339765
 30
0.0
 10
397.997162
 20
79.339765
 30
0.0
 10
397.997162
 20
69.339790
 30
0.0
 10
399.997158
 20
69.339790
 30
0.0
 10
399.997158
 20
59.339814
 30
0.0
 10
397.997162
 20
59.339814
 30
0.0
 10
397.997162
 20
49.339841
 30
0.0
 10
399.997158
 20
49.339841
 30
0.0
 10
399.997158
 20
39.339874
 30
0.0
 10
397.997162
 20
39.339874
 30
0.0
 10
397.997162
 20
29.339907
 30
0.0
 10
399.997158
 20
29.339907
 30
0.0
 10
399.997158
 20
19.339913
 30
0.0
 10
397.997162
 20
19.339913
 30
0.0
 10
397.997162
 20
8.339954
 30
0.0
 10
406.997119
 20
8.339980
 30
0.0
 10
406.997119
 20
10.339937
 30
0.0
 10
416.997095
 20
10.339937
 30
0.0
 10
416.997095
 20
8.339980
 30
0.0
 10
522.996812
 20
8.339980
 30
0.0
 10
522.996812
 20
10.339937
 30
0.0
 10
532.996806
 20
10.339937
 30
0.0
 10
532.996806
 20
8.339980
 30
0.0
  0
LWPOLYLINE
  5
127
100
AcDbEntity
  8
Layer_1
 62
7
100
AcDbPolyline
 90
4
 70
1
 10
534.996789
 20
106.339717
 30
0.0
 10
524.996822
 20
106.339717
 30
0.0
 10
524.996822
 20
108.339710
 30
0.0
 10
534.996789
 20
108.339710
 30
0.0
  0
LWPOLYLINE
  5
128
100
AcDbEntity
  8
Layer_1
 62
7
100
AcDbPolyline
 90
4
 70
1
 10
514.996854
 20
106.339717
 30
0.0
 10
504.996861
 20
106.339717
 30
0.0
 10
504.996861
 20
108.339710
 30
0.0
 10
514.996854
 20
108.339710
 30
0.0
  0
LWPOLYLINE
  5
129
100
AcDbEntity
  8
Layer_1
 62
7
100
AcDbPolyline
 90
4
 70
1
 10
494.996893
 20
106.339717
 30
0.0
 10
484.996926
 20
106.339717
 30
0.0
 10
484.996926
 20
108.339710
 30
0.0
 10
494.996893
 20
108.339710
 30
0.0
  0
LWPOLYLINE
  5
12a
100
AcDbEntity
  8
Layer_1
 62
7
100
AcDbPolyline
 90
4
 70
1
 10
454.996997
 20
106.339717
 30
0.0
 10
444.997030
 20
106.339717
 30
0.0
 10
444.997030
 20
108.339710
 30
0.0
 10
454.996997
 20
108.339710
 30
0.0
  0
LWPOLYLINE
  5
12b
100
AcDbEntity
  8
Layer_1
 62
7
100
AcDbPolyline
 90
4
 70
1
 10
434.997036
 20
106.339717
 30
0.0
 10
424.997068
 20
106.339717
 30
0.0
 10
424.997068
 20
108.339710
 30
0.0
 10
434.997036
 20
108.339710
 30
0.0
  0
LWPOLYLINE
  5
12c
100
AcDbEntity
  8
Layer_1
 62
7
100
AcDbPolyline
 90
4
 70
1
 10
414.997101
 20
106.339717
 30
0.0
 10
404.997126
 20
106.339717
 30
0.0
 10
404.997126
 20
108.339710
 30
0.0
 10
414.997101
 20
108.339710
 30
0.0
  0
LWPOLYLINE
  5
12d
100
AcDbEntity
  8
Layer_1
 62
1
100
AcDbPolyline
 90
93
 70
1
 10
541.996782
 20
163.339552
 30
0.0
 10
541.996782
 20
174.339524
 30
0.0
 10
539.996773
 20
174.339524
 30
0.0
 10
539.996773
 20
184.339499
 30
0.0
 10
541.996782
 20
184.339499
 30
0.0
 10
541.996782
 20
194.339475
 30
0.0
 10
539.996773
 20
194.339475
 30
0.0
 10
539.996773
 20
204.339450
 30
0.0
 10
541.996782
 20
204.339450
 30
0.0
 10
541.996782
 20
214.339423
 30
0.0
 10
539.996773
 20
214.339423
 30
0.0
 10
539.996773
 20
224.339398
 30
0.0
 10
541.996782
 20
224.339398
 30
0.0
 10
541.996782
 20
234.339373
 30
0.0
 10
539.996773
 20
234.339373
 30
0.0
 10
539.996773
 20
244.339348
 30
0.0
 10
541.996782
 20
244.339348
 30
0.0
 10
541.996782
 20
254.339323
 30
0.0
 10
539.996773
 20
254.339323
 30
0.0
 10
539.996773
 20
264.339296
 30
0.0
 10
541.996782
 20
264.339296
 30
0.0
 10
541.996782
 20
274.339274
 30
0.0
 10
539.996773
 20
274.339274
 30
0.0
 10
539.996773
 20
284.339247
 30
0.0
 10
541.996782
 20
284.339247
 30
0.0
 10
541.996782
 20
294.339223
 30
0.0
 10
539.996773
 20
294.339223
 30
0.0
 10
539.996773
 20
304.339198
 30
0.0
 10
541.996782
 20
304.339198
 30
0.0
 10
541.996782
 20
315.339170
 30
0.0
 10
524.996822
 20
315.339170
 30
0.0
 10
524.996822
 20
313.339174
 30
0.0
 10
514.996854
 20
313.339174
 30
0.0
 10
514.996854
 20
315.339170
 30
0.0
 10
504.996861
 20
315.339170
 30
0.0
 10
504.996861
 20
313.339174
 30
0.0
 10
494.996893
 20
313.339174
 30
0.0
 10
494.996893
 20
315.339170
 30
0.0
 10
484.996926
 20
315.339170
 30
0.0
 10
484.996926
 20
313.339174
 30
0.0
 10
474.996932
 20
313.339174
 30
0.0
 10
474.996932
 20
315.339170
 30
0.0
 10
464.996965
 20
315.339170
 30
0.0
 10
464.996965
 20
313.339174
 30
0.0
 10
454.996997
 20
313.339174
 30
0.0
 10
454.996997
 20
315.339170
 30
0.0
 10
444.997030
 20
315.339170
 30
0.0
 10
444.997030
 20
313.339174
 30
0.0
 10
434.997036
 20
313.339174
 30
0.0
 10
434.997036
 20
315.339170
 30
0.0
 10
424.997068
 20
315.339170
 30
0.0
 10
424.997068
 20
313.339174
 30
0.0
 10
414.997101
 20
313.339174
 30
0.0
 10
414.997101
 20
315.339170
 30
0.0
 10
404.997126
 20
315.339170
 30
0.0
 10
397.997143
 20
315.339170
 30
0.0
 10
397.997143
 20
304.339198
 30
0.0
 10
399.997139
 20
304.339198
 30
0.0
 10
399.997139
 20
294.339223
 30
0.0
 10
397.997143
 20
294.339223
 30
0.0
 10
397.997143
 20
284.339247
 30
0.0
 10
399.997139
 20
284.339247
 30
0.0
 10
399.997139
 20
274.339274
 30
0.0
 10
397.997143
 20
274.339274
 30
0.0
 10
397.997143
 20
264.339296
 30
0.0
 10
399.997139
 20
264.339296
 30
0.0
 10
399.997139
 20
254.339323
 30
0.0
 10
397.997143
 20
254.339323
 30
0.0
 10
397.997143
 20
244.339348
 30
0.0
 10
399.997139
 20
244.339348
 30
0.0
 10
399.997139
 20
234.339373
 30
0.0
 10
397.997143
 20
234.339373
 30
0.0
 10
397.997143
 20
224.339398
 30
0.0
 10
399.997139
 20
224.339398
 30
0.0
 10
399.997139
 20
214.339423
 30
0.0
 10
397.997143
 20
214.339423
 30
0.0
 10
397.997143
 20
204.339450
 30
0.0
 10
399.997139
 20
204.339450
 30
0.0
 10
399.997139
 20
194.339475
 30
0.0
 10
397.997143
 20
194.339475
 30
0.0
 10
397.997143
 20
184.339499
 30
0.0
 10
399.997139
 20
184.339499
 30
0.0
 10
399.997139
 20
174.339524
 30
0.0
 10
397.997143
 20
174.339524
 30
0.0
 10
397.997143
 20
163.339552
 30
0.0
 10
406.997101
 20
163.339568
 30
0.0
 10
406.997101
 20
165.339567
 30
0.0
 10
416.997076
 20
165.339567
 30
0.0
 10
416.997076
 20
163.339568
 30
0.0
 10
522.996812
 20
163.339568
 30
0.0
 10
522.996812
 20
165.339567
 30
0.0
 10
532.996780
 20
165.339567
 30
0.0
 10
532.996780
 20
163.339568
 30
0.0
  0
LWPOLYLINE
  5
12e
100
AcDbEntity
  8
Layer_1
 62
7
100
AcDbPolyline
 90
4
 70
1
 10
534.996763
 20
261.339324
 30
0.0
 10
524.996795
 20
261.339324
 30
0.0
 10
524.996795
 20
263.339318
 30
0.0
 10
534.996763
 20
263.339318
 30
0.0
  0
LWPOLYLINE
  5
12f
100
AcDbEntity
  8
Layer_1
 62
7
100
AcDbPolyline
 90
4
 70
1
 10
514.996828
 20
261.339324
 30
0.0
 10
504.996861
 20
261.339324
 30
0.0
 10
504.996861
 20
263.339318
 30
0.0
 10
514.996828
 20
263.339318
 30
0.0
  0
LWPOLYLINE
  5
130
100
AcDbEntity
  8
Layer_1
 62
7
100
AcDbPolyline
 90
4
 70
1
 10
494.996867
 20
261.339324
 30
0.0
 10
484.996899
 20
261.339324
 30
0.0
 10
484.996899
 20
263.339318
 30
0.0
 10
494.996867
 20
263.339318
 30
0.0
  0
LWPOLYLINE
  5
131
100
AcDbEntity
  8
Layer_1
 62
7
100
AcDbPolyline
 90
4
 70
1
 10
454.996971
 20
261.339324
 30
0.0
 10
444.997003
 20
261.339324
 30
0.0
 10
444.997003
 20
263.339318
 30
0.0
 10
454.996971
 20
263.339318
 30
0.0
  0
LWPOLYLINE
  5
132
100
AcDbEntity
  8
Layer_1
 62
7
100
AcDbPolyline
 90
4
 70
1
 10
434.997036
 20
261.339324
 30
0.0
 10
424.997042
 20
261.339324
 30
0.0
 10
424.997042
 20
263.339318
 30
0.0
 10
434.997036
 20
263.339318
 30
0.0
  0
LWPOLYLINE
  5
133
100
AcDbEntity
  8
Layer_1
 62
7
100
AcDbPolyline
 90
4
 70
1
 10
414.997083
 20
261.339324
 30
0.0
 10
404.997110
 20
261.339324
 30
0.0
 10
404.997110
 20
263.339318
 30
0.0
 10
414.997083
 20
263.339318
 30
0.0
  0
LWPOLYLINE
  5
134
100
AcDbEntity
  8
Layer_1
 62
1
100
AcDbPolyline
 90
120
 70
1
 10
393.406975
 20
8.339957
 30
0.0
 10
393.406975
 20
19.339915
 30
0.0
 10
395.406971
 20
19.339915
 30
0.0
 10
395.406971
 20
29.339909
 30
0.0
 10
393.406975
 20
29.339909
 30
0.0
 10
393.406975
 20
39.339877
 30
0.0
 10
395.406971
 20
39.339877
 30
0.0
 10
395.406971
 20
49.339844
 30
0.0
 10
393.406975
 20
49.339844
 30
0.0
 10
393.406975
 20
59.339817
 30
0.0
 10
395.406971
 20
59.339817
 30
0.0
 10
395.406971
 20
69.339792
 30
0.0
 10
393.406975
 20
69.339792
 30
0.0
 10
393.406975
 20
79.339768
 30
0.0
 10
395.406971
 20
79.339768
 30
0.0
 10
395.406971
 20
89.339740
 30
0.0
 10
393.406975
 20
89.339740
 30
0.0
 10
393.406975
 20
99.339716
 30
0.0
 10
395.406971
 20
99.339716
 30
0.0
 10
395.406971
 20
109.339688
 30
0.0
 10
393.406975
 20
109.339688
 30
0.0
 10
393.406975
 20
119.339664
 30
0.0
 10
395.406971
 20
119.339664
 30
0.0
 10
395.406971
 20
129.339639
 30
0.0
 10
393.406975
 20
129.339639
 30
0.0
 10
393.406975
 20
139.339614
 30
0.0
 10
395.406971
 20
139.339614
 30
0.0
 10
395.406971
 20
149.339587
 30
0.0
 10
393.406975
 20
149.339587
 30
0.0
 10
393.406975
 20
160.339562
 30
0.0
 10
383.406999
 20
160.339562
 30
0.0
 10
383.406999
 20
158.339566
 30
0.0
 10
373.407024
 20
158.339566
 30
0.0
 10
373.407024
 20
160.339562
 30
0.0
 10
363.407049
 20
160.339562
 30
0.0
 10
363.407049
 20
158.339566
 30
0.0
 10
353.407076
 20
158.339566
 30
0.0
 10
353.407076
 20
160.339562
 30
0.0
 10
343.407101
 20
160.339562
 30
0.0
 10
343.407101
 20
158.339566
 30
0.0
 10
333.407128
 20
158.339566
 30
0.0
 10
333.407128
 20
160.339562
 30
0.0
 10
323.407150
 20
160.339562
 30
0.0
 10
323.407150
 20
158.339566
 30
0.0
 10
313.407177
 20
158.339566
 30
0.0
 10
313.407177
 20
160.339562
 30
0.0
 10
303.407202
 20
160.339562
 30
0.0
 10
303.407202
 20
158.339566
 30
0.0
 10
293.407229
 20
158.339566
 30
0.0
 10
293.407229
 20
160.339562
 30
0.0
 10
283.407251
 20
160.339562
 30
0.0
 10
283.407251
 20
158.339566
 30
0.0
 10
273.407284
 20
158.339566
 30
0.0
 10
273.407284
 20
160.339562
 30
0.0
 10
263.407290
 20
160.339562
 30
0.0
 10
263.407290
 20
158.339566
 30
0.0
 10
253.407349
 20
158.339566
 30
0.0
 10
253.407349
 20
160.339562
 30
0.0
 10
243.407355
 20
160.339562
 30
0.0
 10
243.407355
 20
158.339566
 30
0.0
 10
233.407388
 20
158.339566
 30
0.0
 10
233.407388
 20
160.339562
 30
0.0
 10
223.407394
 20
160.339562
 30
0.0
 10
223.407394
 20
158.339566
 30
0.0
 10
213.407427
 20
158.339566
 30
0.0
 10
213.407427
 20
160.339562
 30
0.0
 10
203.407459
 20
160.339562
 30
0.0
 10
203.407459
 20
158.339566
 30
0.0
 10
193.407492
 20
158.339566
 30
0.0
 10
193.407492
 20
160.339562
 30
0.0
 10
183.407498
 20
160.339562
 30
0.0
 10
183.407498
 20
158.339566
 30
0.0
 10
173.407505
 20
158.339566
 30
0.0
 10
173.407505
 20
160.339562
 30
0.0
 10
163.407564
 20
160.339562
 30
0.0
 10
163.407564
 20
158.339566
 30
0.0
 10
153.407570
 20
158.339566
 30
0.0
 10
153.407570
 20
160.339562
 30
0.0
 10
143.407603
 20
160.339562
 30
0.0
 10
143.407603
 20
158.339566
 30
0.0
 10
133.407609
 20
158.339566
 30
0.0
 10
133.407609
 20
160.339562
 30
0.0
 10
123.407667
 20
160.339562
 30
0.0
 10
123.407667
 20
149.339587
 30
0.0
 10
121.407658
 20
149.339587
 30
0.0
 10
121.407658
 20
139.339614
 30
0.0
 10
123.407667
 20
139.339614
 30
0.0
 10
123.407667
 20
129.339639
 30
0.0
 10
121.407658
 20
129.339639
 30
0.0
 10
121.407658
 20
119.339664
 30
0.0
 10
123.407667
 20
119.339664
 30
0.0
 10
123.407667
 20
109.339688
 30
0.0
 10
121.407658
 20
109.339688
 30
0.0
 10
121.407658
 20
99.339716
 30
0.0
 10
123.407667
 20
99.339716
 30
0.0
 10
123.407667
 20
89.339740
 30
0.0
 10
121.407658
 20
89.339740
 30
0.0
 10
121.407658
 20
79.339768
 30
0.0
 10
123.407667
 20
79.339768
 30
0.0
 10
123.407667
 20
69.339792
 30
0.0
 10
121.407658
 20
69.339792
 30
0.0
 10
121.407658
 20
59.339817
 30
0.0
 10
123.407667
 20
59.339817
 30
0.0
 10
123.407667
 20
49.339844
 30
0.0
 10
121.407658
 20
49.339844
 30
0.0
 10
121.407658
 20
39.339877
 30
0.0
 10
123.407667
 20
39.339877
 30
0.0
 10
123.407667
 20
29.339909
 30
0.0
 10
121.407658
 20
29.339909
 30
0.0
 10
121.407658
 20
19.339915
 30
0.0
 10
123.407667
 20
19.339915
 30
0.0
 10
123.407641
 20
8.339957
 30
0.0
 10
130.407634
 20
8.339957
 30
0.0
 10
130.407634
 20
10.339940
 30
0.0
 10
140.407602
 20
10.339940
 30
0.0
 10
140.407602
 20
8.339957
 30
0.0
 10
376.406998
 20
8.339983
 30
0.0
 10
376.406998
 20
10.339940
 30
0.0
 10
386.406971
 20
10.339940
 30
0.0
 10
386.406971
 20
8.339957
 30
0.0
  0
LWPOLYLINE
  5
135
100
AcDbEntity
  8
Layer_1
 62
7
100
AcDbPolyline
 90
4
 70
1
 10
388.406967
 20
106.339719
 30
0.0
 10
378.406992
 20
106.339719
 30
0.0
 10
378.406992
 20
108.339713
 30
0.0
 10
388.406967
 20
108.339713
 30
0.0
  0
LWPOLYLINE
  5
136
100
AcDbEntity
  8
Layer_1
 62
7
100
AcDbPolyline
 90
4
 70
1
 10
368.407019
 20
106.339719
 30
0.0
 10
358.407044
 20
106.339719
 30
0.0
 10
358.407044
 20
108.339713
 30
0.0
 10
368.407019
 20
108.339713
 30
0.0
  0
LWPOLYLINE
  5
137
100
AcDbEntity
  8
Layer_1
 62
7
100
AcDbPolyline
 90
4
 70
1
 10
348.407069
 20
106.339719
 30
0.0
 10
338.407093
 20
106.339719
 30
0.0
 10
338.407093
 20
108.339713
 30
0.0
 10
348.407069
 20
108.339713
 30
0.0
  0
LWPOLYLINE
  5
138
100
AcDbEntity
  8
Layer_1
 62
7
100
AcDbPolyline
 90
4
 70
1
 10
178.407489
 20
106.339719
 30
0.0
 10
168.407521
 20
106.339719
 30
0.0
 10
168.407521
 20
108.339713
 30
0.0
 10
178.407489
 20
108.339713
 30
0.0
  0
LWPOLYLINE
  5
139
100
AcDbEntity
  8
Layer_1
 62
7
100
AcDbPolyline
 90
4
 70
1
 10
158.407554
 20
106.339719
 30
0.0
 10
148.407586
 20
106.339719
 30
0.0
 10
148.407586
 20
108.339713
 30
0.0
 10
158.407554
 20
108.339713
 30
0.0
  0
LWPOLYLINE
  5
13a
100
AcDbEntity
  8
Layer_1
 62
7
100
AcDbPolyline
 90
4
 70
1
 10
138.407593
 20
106.339719
 30
0.0
 10
128.407625
 20
106.339719
 30
0.0
 10
128.407625
 20
108.339713
 30
0.0
 10
138.407593
 20
108.339713
 30
0.0
  0
LWPOLYLINE
  5
13b
100
AcDbEntity
  8
Layer_1
 62
1
100
AcDbPolyline
 90
122
 70
1
 10
393.406956
 20
163.339555
 30
0.0
 10
393.406956
 20
174.339527
 30
0.0
 10
395.406950
 20
174.339527
 30
0.0
 10
395.406950
 20
184.339502
 30
0.0
 10
393.406956
 20
184.339502
 30
0.0
 10
393.406956
 20
194.339477
 30
0.0
 10
395.406950
 20
194.339477
 30
0.0
 10
395.406950
 20
204.339453
 30
0.0
 10
393.406956
 20
204.339453
 30
0.0
 10
393.406956
 20
214.339425
 30
0.0
 10
395.406950
 20
214.339425
 30
0.0
 10
395.406950
 20
224.339401
 30
0.0
 10
393.406956
 20
224.339401
 30
0.0
 10
393.406956
 20
234.339375
 30
0.0
 10
395.406950
 20
234.339375
 30
0.0
 10
395.406950
 20
244.339351
 30
0.0
 10
393.406956
 20
244.339351
 30
0.0
 10
393.406956
 20
254.339326
 30
0.0
 10
395.406950
 20
254.339326
 30
0.0
 10
395.406950
 20
264.339296
 30
0.0
 10
393.406956
 20
264.339296
 30
0.0
 10
393.406956
 20
274.339271
 30
0.0
 10
395.406950
 20
274.339271
 30
0.0
 10
395.406950
 20
284.339247
 30
0.0
 10
393.406956
 20
284.339247
 30
0.0
 10
393.406956
 20
294.339223
 30
0.0
 10
395.406950
 20
294.339223
 30
0.0
 10
395.406950
 20
304.339198
 30
0.0
 10
393.406956
 20
304.339198
 30
0.0
 10
393.406956
 20
315.339170
 30
0.0
 10
383.406981
 20
315.339170
 30
0.0
 10
383.406981
 20
313.339174
 30
0.0
 10
373.407003
 20
313.339174
 30
0.0
 10
373.407003
 20
315.339170
 30
0.0
 10
363.407030
 20
315.339170
 30
0.0
 10
363.407030
 20
313.339174
 30
0.0
 10
353.407055
 20
313.339174
 30
0.0
 10
353.407055
 20
315.339170
 30
0.0
 10
343.407082
 20
315.339170
 30
0.0
 10
343.407082
 20
313.339174
 30
0.0
 10
333.407104
 20
313.339174
 30
0.0
 10
333.407104
 20
315.339170
 30
0.0
 10
323.407132
 20
315.339170
 30
0.0
 10
323.407132
 20
313.339174
 30
0.0
 10
313.407156
 20
313.339174
 30
0.0
 10
313.407156
 20
315.339170
 30
0.0
 10
303.407184
 20
315.339170
 30
0.0
 10
303.407184
 20
313.339174
 30
0.0
 10
293.407208
 20
313.339174
 30
0.0
 10
293.407208
 20
315.339170
 30
0.0
 10
283.407233
 20
315.339170
 30
0.0
 10
283.407233
 20
313.339174
 30
0.0
 10
273.407258
 20
313.339174
 30
0.0
 10
273.407258
 20
315.339170
 30
0.0
 10
263.407290
 20
315.339170
 30
0.0
 10
263.407290
 20
313.339174
 30
0.0
 10
253.407323
 20
313.339174
 30
0.0
 10
253.407323
 20
315.339170
 30
0.0
 10
243.407329
 20
315.339170
 30
0.0
 10
243.407329
 20
313.339174
 30
0.0
 10
233.407361
 20
313.339174
 30
0.0
 10
233.407361
 20
315.339170
 30
0.0
 10
223.407368
 20
315.339170
 30
0.0
 10
223.407368
 20
313.339174
 30
0.0
 10
213.407427
 20
313.339174
 30
0.0
 10
213.407427
 20
315.339170
 30
0.0
 10
203.407433
 20
315.339170
 30
0.0
 10
203.407433
 20
313.339174
 30
0.0
 10
193.407465
 20
313.339174
 30
0.0
 10
193.407465
 20
315.339170
 30
0.0
 10
183.407472
 20
315.339170
 30
0.0
 10
183.407472
 20
313.339174
 30
0.0
 10
173.407505
 20
313.339174
 30
0.0
 10
173.407505
 20
315.339170
 30
0.0
 10
163.407538
 20
315.339170
 30
0.0
 10
163.407538
 20
313.339174
 30
0.0
 10
153.407544
 20
313.339174
 30
0.0
 10
153.407544
 20
315.339170
 30
0.0
 10
143.407576
 20
315.339170
 30
0.0
 10
143.407576
 20
313.339174
 30
0.0
 10
133.407609
 20
313.339174
 30
0.0
 10
133.407609
 20
315.339170
 30
0.0
 10
123.407641
 20
315.339170
 30
0.0
 10
123.407641
 20
304.339198
 30
0.0
 10
121.407631
 20
304.339198
 30
0.0
 10
121.407631
 20
294.339223
 30
0.0
 10
123.407641
 20
294.339223
 30
0.0
 10
123.407641
 20
284.339247
 30
0.0
 10
121.407631
 20
284.339247
 30
0.0
 10
121.407631
 20
274.339271
 30
0.0
 10
123.407641
 20
274.339271
 30
0.0
 10
123.407641
 20
264.339296
 30
0.0
 10
121.407631
 20
264.339296
 30
0.0
 10
121.407631
 20
254.339326
 30
0.0
 10
123.407641
 20
254.339326
 30
0.0
 10
123.407641
 20
244.339351
 30
0.0
 10
121.407631
 20
244.339351
 30
0.0
 10
121.407631
 20
234.339375
 30
0.0
 10
123.407641
 20
234.339375
 30
0.0
 10
123.407641
 20
224.339401
 30
0.0
 10
121.407631
 20
224.339401
 30
0.0
 10
121.407631
 20
214.339425
 30
0.0
 10
123.407641
 20
214.339425
 30
0.0
 10
123.407641
 20
204.339453
 30
0.0
 10
121.407631
 20
204.339453
 30
0.0
 10
121.407631
 20
194.339477
 30
0.0
 10
123.407641
 20
194.339477
 30
0.0
 10
123.407641
 20
184.339502
 30
0.0
 10
121.407631
 20
184.339502
 30
0.0
 10
121.407631
 20
174.339527
 30
0.0
 10
123.407641
 20
174.339527
 30
0.0
 10
123.407614
 20
163.339555
 30
0.0
 10
130.407608
 20
163.339555
 30
0.0
 10
130.407608
 20
165.339569
 30
0.0
 10
140.407575
 20
165.339569
 30
0.0
 10
140.407575
 20
163.339555
 30
0.0
 10
254.514867
 20
163.339562
 30
0.0
 10
262.357292
 20
163.389585
 30
0.0
 10
376.406977
 20
163.339570
 30
0.0
 10
376.406977
 20
165.339569
 30
0.0
 10
386.406953
 20
165.339569
 30
0.0
 10
386.406953
 20
163.339555
 30
0.0
  0
LWPOLYLINE
  5
13c
100
AcDbEntity
  8
Layer_1
 62
7
100
AcDbPolyline
 90
4
 70
1
 10
388.406946
 20
261.339327
 30
0.0
 10
378.406973
 20
261.339327
 30
0.0
 10
378.406973
 20
263.339320
 30
0.0
 10
388.406946
 20
263.339320
 30
0.0
  0
LWPOLYLINE
  5
13d
100
AcDbEntity
  8
Layer_1
 62
7
100
AcDbPolyline
 90
4
 70
1
 10
368.406998
 20
261.339327
 30
0.0
 10
358.407023
 20
261.339327
 30
0.0
 10
358.407023
 20
263.339320
 30
0.0
 10
368.406998
 20
263.339320
 30
0.0
  0
LWPOLYLINE
  5
13e
100
AcDbEntity
  8
Layer_1
 62
7
100
AcDbPolyline
 90
4
 70
1
 10
348.407047
 20
261.339327
 30
0.0
 10
338.407072
 20
261.339327
 30
0.0
 10
338.407072
 20
263.339320
 30
0.0
 10
348.407047
 20
263.339320
 30
0.0
  0
SPLINE
  5
13f
100
AcDbEntity
  8
Layer_1
 62
7
100
AcDbSpline
 70
8
 71
3
 72
8
 73
4
 74
0
 40
0
 40
0
 40
0
 40
0
 40
1
 40
1
 40
1
 40
1
 10
254.357334
 20
163.389585
 30
0.0
 10
254.357334
 20
164.818642
 30
0.0
 10
255.119730
 20
166.139144
 30
0.0
 10
256.357317
 20
166.853675
 30
0.0
  0
SPLINE
  5
140
100
AcDbEntity
  8
Layer_1
 62
7
100
AcDbSpline
 70
8
 71
3
 72
8
 73
4
 74
0
 40
0
 40
0
 40
0
 40
0
 40
1
 40
1
 40
1
 40
1
 10
256.357317
 20
166.853675
 30
0.0
 10
257.594904
 20
167.568202
 30
0.0
 10
259.119696
 20
167.568202
 30
0.0
 10
260.357283
 20
166.853675
 30
0.0
  0
SPLINE
  5
141
100
AcDbEntity
  8
Layer_1
 62
7
100
AcDbSpline
 70
8
 71
3
 72
8
 73
4
 74
0
 40
0
 40
0
 40
0
 40
0
 40
1
 40
1
 40
1
 40
1
 10
260.357283
 20
166.853675
 30
0.0
 10
261.594897
 20
166.139144
 30
0.0
 10
262.357292
 20
164.818642
 30
0.0
 10
262.357292
 20
163.389585
 30
0.0
  0
LWPOLYLINE
  5
142
100
AcDbEntity
  8
Layer_1
 62
7
100
AcDbPolyline
 90
4
 70
1
 10
178.407462
 20
261.339327
 30
0.0
 10
168.407521
 20
261.339327
 30
0.0
 10
168.407521
 20
263.339320
 30
0.0
 10
178.407462
 20
263.339320
 30
0.0
  0
LWPOLYLINE
  5
143
100
AcDbEntity
  8
Layer_1
 62
7
100
AcDbPolyline
 90
4
 70
1
 10
158.407527
 20
261.339327
 30
0.0
 10
148.407560
 20
261.339327
 30
0.0
 10
148.407560
 20
263.339320
 30
0.0
 10
158.407527
 20
263.339320
 30
0.0
  0
LWPOLYLINE
  5
144
100
AcDbEntity
  8
Layer_1
 62
7
100
AcDbPolyline
 90
4
 70
1
 10
138.407566
 20
261.339327
 30
0.0
 10
128.407625
 20
261.339327
 30
0.0
 10
128.407625
 20
263.339320
 30
0.0
 10
138.407566
 20
263.339320
 30
0.0
  0
LWPOLYLINE
  5
145
100
AcDbEntity
  8
Layer_1
 62
1
100
AcDbPolyline
 90
54
 70
1
 10
114.407326
 20
199.339480
 30
0.0
 10
104.407351
 20
199.339480
 30
0.0
 10
104.407351
 20
201.339489
 30
0.0
 10
94.407367
 20
201.339489
 30
0.0
 10
94.407367
 20
199.339480
 30
0.0
 10
84.407400
 20
199.339480
 30
0.0
 10
84.407400
 20
201.339489
 30
0.0
 10
74.407433
 20
201.339489
 30
0.0
 10
74.407433
 20
199.339480
 30
0.0
 10
64.407465
 20
199.339480
 30
0.0
 10
64.407465
 20
184.339502
 30
0.0
 10
62.407456
 20
184.339502
 30
0.0
 10
62.407456
 20
174.339535
 30
0.0
 10
64.407465
 20
174.339535
 30
0.0
 10
64.407465
 20
164.339541
 30
0.0
 10
62.407456
 20
164.339541
 30
0.0
 10
62.407456
 20
154.339600
 30
0.0
 10
64.407465
 20
154.339600
 30
0.0
 10
64.407465
 20
144.339606
 30
0.0
 10
62.407456
 20
144.339606
 30
0.0
 10
62.407456
 20
134.339638
 30
0.0
 10
64.407465
 20
134.339638
 30
0.0
 10
64.407465
 20
124.339645
 30
0.0
 10
62.407456
 20
124.339645
 30
0.0
 10
62.407456
 20
114.339704
 30
0.0
 10
64.407465
 20
114.339704
 30
0.0
 10
64.407465
 20
104.339710
 30
0.0
 10
64.407465
 20
99.339726
 30
0.0
 10
74.407433
 20
99.339726
 30
0.0
 10
74.407433
 20
97.339743
 30
0.0
 10
84.407400
 20
97.339743
 30
0.0
 10
84.407400
 20
99.339726
 30
0.0
 10
94.407367
 20
99.339726
 30
0.0
 10
94.407367
 20
97.339743
 30
0.0
 10
104.407351
 20
97.339743
 30
0.0
 10
104.407351
 20
99.339726
 30
0.0
 10
114.407326
 20
99.339726
 30
0.0
 10
114.407326
 20
114.339704
 30
0.0
 10
116.407320
 20
114.339704
 30
0.0
 10
116.407320
 20
124.339645
 30
0.0
 10
114.407326
 20
124.339645
 30
0.0
 10
114.407326
 20
134.339638
 30
0.0
 10
116.407320
 20
134.339638
 30
0.0
 10
116.407320
 20
144.339606
 30
0.0
 10
114.407326
 20
144.339606
 30
0.0
 10
114.407326
 20
154.339600
 30
0.0
 10
116.407320
 20
154.339600
 30
0.0
 10
116.407320
 20
164.339541
 30
0.0
 10
114.407326
 20
164.339541
 30
0.0
 10
114.407326
 20
174.339535
 30
0.0
 10
116.407320
 20
174.339535
 30
0.0
 10
116.407320
 20
184.339502
 30
0.0
 10
114.407326
 20
184.339502
 30
0.0
 10
114.407326
 20
194.339496
 30
0.0
  0
ENDSEC
  0
SECTION
  2
OBJECTS
  0
DICTIONARY
  5
C
330
0
100
AcDbDictionary
  3
ACAD_GROUP
350
D
  3
ACAD_MLINESTYLE
350
17
  0
DICTIONARY
  5
D
330
C
100
AcDbDictionary
  0
DICTIONARY
  5
1A
330
C
100
AcDbDictionary
  0
DICTIONARY
  5
17
330
C
100
AcDbDictionary
  3
STANDARD
350
18
  0
DICTIONARY
  5
19
330
C
100
AcDbDictionary
  0
ENDSEC
  0
EOF
